<?xml version="1.0" encoding="UTF-8"?>
<svg id="katman_1" data-name="katman 1" xmlns="http://www.w3.org/2000/svg" viewBox="0 0 649.3 232.67">
  <defs>
    <style>
      .cls-1 {
        fill: #b31917;
      }

      .cls-2 {
        fill: #45494b;
      }

      .cls-3 {
        fill: #a3a6a6;
      }
    </style>
  </defs>
  <g>
    <path class="cls-3" d="M505.17,227.32v-1.76h.53c.77,0,1.09.33,1.1.85,0,.46-.25.91-1.1.91h-.53ZM507.98,230.46l-1.03-2.61c.6-.51.67-.85.67-1.4,0-.97-.7-1.57-1.83-1.57h-1.42v5.58h.79v-2.51h.97l1,2.5h.84Z"/>
    <path class="cls-3" d="M506.02,223.17c-2.45,0-4.44,1.99-4.44,4.42s1.99,4.42,4.44,4.42,4.41-1.97,4.41-4.42-1.98-4.42-4.41-4.42M506.02,232.67c-2.8,0-5.08-2.28-5.08-5.07s2.28-5.06,5.08-5.06,5.07,2.27,5.07,5.06-2.28,5.07-5.07,5.07"/>
    <polygon class="cls-3" points="238.74 180.37 225.11 222.69 208.68 180.63 204.47 180.63 224.22 232.23 226.07 232.23 240.18 186.74 254.54 232.23 256.39 232.23 276.04 180.63 271.73 180.63 255.54 222.65 241.73 180.37 238.74 180.37"/>
    <polygon class="cls-3" points="293.07 180.58 293.07 231.81 318.14 231.81 318.14 228.51 297.04 228.51 297.04 180.58 293.07 180.58"/>
    <polygon class="cls-3" points="325.45 180.58 325.45 231.81 350.5 231.81 350.5 228.51 329.4 228.51 329.4 180.58 325.45 180.58"/>
    <rect class="cls-3" x="357.49" y="180.59" width="3.97" height="51.22"/>
    <rect class="cls-3" x="281.79" y="180.59" width="3.99" height="51.22"/>
    <path class="cls-3" d="M389.19,186.76l9.89,24.08h-19.69l9.8-24.08ZM388.26,180.32l-21.18,51.5h3.69l7.26-17.7h22.39l7.24,17.7h3.71l-21.17-51.5h-1.94Z"/>
    <polygon class="cls-3" points="459.83 180.69 440.34 204.46 420.85 180.69 416.87 180.69 416.87 231.81 420.85 231.81 420.85 186.47 421 186.47 440.34 210.36 459.66 186.47 459.83 186.47 459.83 231.81 463.8 231.81 463.8 180.69 459.83 180.69"/>
    <path class="cls-3" d="M496.67,188.98c-3.24-4.18-7.84-5.17-11.37-5.17-6.14,0-10.78,4.2-10.78,9.77,0,13.63,24.35,7.12,24.35,25.03,0,7.87-6.51,14.01-14.85,14.01-4.19,0-8.69-1.15-13.12-4.5v-4.64c4.99,4.73,8.92,5.48,12.9,5.48,6.08,0,10.78-4.43,10.78-10.2,0-14.54-24.34-8.18-24.34-25.03,0-7.56,6.58-13.55,14.69-13.58,4.12,0,9.38,1.68,11.73,4.5v4.34Z"/>
    <polygon class="cls-3" points="76.42 180.74 76.42 231.96 102.74 231.96 102.74 225.34 83.77 225.34 83.77 180.74 76.42 180.74"/>
    <polygon class="cls-3" points="107.46 180.74 107.46 231.96 133.78 231.96 133.78 225.34 114.82 225.34 114.82 180.74 107.46 180.74"/>
    <polygon class="cls-3" points="138.53 180.74 138.53 231.96 168.27 231.96 168.27 225.34 145.89 225.34 145.89 209.43 166.85 209.43 166.85 202.81 145.89 202.81 145.89 187.35 167.59 187.35 167.59 180.74 138.53 180.74"/>
    <path class="cls-3" d="M180.42,203.13v-16.07h4.73c7.14,0,9.99,2.93,10.07,7.73.08,4.29-2.18,8.34-10.07,8.34h-4.73ZM206.06,231.94l-9.48-23.92c5.64-4.66,6.28-7.82,6.21-12.95-.08-8.86-6.44-14.33-16.81-14.33h-12.91v51.22h7.36v-22.9s6.08,0,8.77-.01l9.26,22.9h7.61Z"/>
    <polygon class="cls-3" points="41.93 180.74 41.93 231.87 71.61 231.87 71.61 225.26 49.28 225.26 49.28 209.38 70.19 209.38 70.19 202.78 49.28 202.78 49.28 187.34 70.94 187.34 70.94 180.74 41.93 180.74"/>
    <polygon class="cls-3" points="28.83 180.74 26.23 183.56 7.37 204.08 7.37 180.74 .03 180.74 .03 231.77 7.37 231.77 7.37 214.25 15.54 205.3 26.25 231.78 33.83 231.78 33.83 231.77 31.15 225.19 20.78 199.55 31.95 187.33 37.96 180.74 28.83 180.74"/>
  </g>
  <polygon class="cls-1" points="0 0 0 154.91 21.62 154.91 21.62 118.58 37.46 102.82 59.51 154.91 81.41 154.91 52.3 85.8 72.74 63.15 112.37 154.91 120.69 154.91 150.43 83.94 180.65 154.91 188.85 154.91 234.14 50.44 211.96 50.44 184.7 113.82 158.26 50.44 142.96 50.44 116.3 113.82 88.88 50.44 60.14 50.44 21.62 88.88 21.62 0 0 0"/>
  <g>
    <path class="cls-2" d="M299.31,49.51l25.12,105.45h-19.94l-4.39-22.3h-25.26l-4.39,22.3h-19.94l25.12-105.45h23.66ZM296.78,115.23l-9.17-47.41h-.27l-9.17,47.41h18.61Z"/>
    <path class="cls-2" d="M331.08,49.51h19.14v88.03h33.9v17.43h-53.04V49.51Z"/>
    <path class="cls-2" d="M445.66,66.94h-33.9v24.81h31.9v17.43h-31.9v28.36h35.22v17.43h-54.37V49.51h53.04v17.43Z"/>
    <path class="cls-2" d="M471.98,125.13c0,2.46.18,4.7.53,6.72.35,2.02,1.02,3.72,1.99,5.1.97,1.38,2.28,2.46,3.92,3.25,1.64.79,3.7,1.18,6.18,1.18,2.92,0,5.56-1.06,7.91-3.17,2.35-2.12,3.52-5.39,3.52-9.82,0-2.36-.29-4.41-.86-6.13-.58-1.72-1.53-3.27-2.86-4.65-1.33-1.38-3.08-2.63-5.25-3.77-2.17-1.13-4.85-2.29-8.04-3.47-4.25-1.57-7.93-3.3-11.03-5.17-3.1-1.87-5.7-4.06-7.78-6.57-2.08-2.51-3.61-5.41-4.59-8.71-.97-3.3-1.46-7.11-1.46-11.45,0-10.44,2.61-18.21,7.84-23.33,5.23-5.12,12.41-7.68,21.53-7.68,4.25,0,8.18.52,11.76,1.55,3.59,1.03,6.69,2.71,9.3,5.02,2.61,2.31,4.65,5.27,6.11,8.86,1.46,3.6,2.19,7.9,2.19,12.92v2.95h-18.35c0-5.02-.8-8.89-2.39-11.59-1.6-2.71-4.25-4.06-7.98-4.06-2.13,0-3.9.35-5.32,1.03-1.42.69-2.55,1.6-3.39,2.73-.84,1.13-1.42,2.44-1.73,3.91-.31,1.48-.47,3-.47,4.58,0,3.25.62,5.98,1.86,8.2,1.24,2.22,3.9,4.26,7.98,6.13l14.75,7.09c3.63,1.77,6.6,3.62,8.91,5.54,2.3,1.92,4.14,3.99,5.52,6.2s2.33,4.65,2.86,7.31.8,5.61.8,8.86c0,11.13-2.9,19.23-8.71,24.3-5.8,5.07-13.89,7.61-24.26,7.61s-18.54-2.61-23.2-7.83c-4.65-5.22-6.98-12.7-6.98-22.45v-4.28h19.14v3.1Z"/>
    <path class="cls-2" d="M581.11,66.94h-20.73v88.03h-19.14v-88.03h-20.74v-17.43h60.61v17.43Z"/>
    <path class="cls-2" d="M624.18,49.51l25.12,105.45h-19.94l-4.39-22.3h-25.26l-4.39,22.3h-19.94l25.12-105.45h23.66ZM621.65,115.23l-9.17-47.41h-.27l-9.17,47.41h18.61Z"/>
  </g>
</svg>