<?xml version="1.0" encoding="UTF-8"?>
<svg id="katman_1" xmlns="http://www.w3.org/2000/svg" version="1.1" viewBox="0 0 3000 1000">
  <!-- Generator: Adobe Illustrator 29.8.1, SVG Export Plug-In . SVG Version: 2.1.1 Build 2)  -->
  <defs>
    <style>
      .st0 {
        fill: #b31917;
      }

      .st1 {
        fill: #45494b;
      }

      .st2 {
        fill: #a3a6a6;
      }
    </style>
  </defs>
  <g>
    <path class="st2" d="M903.49,658.52v-2.51h.75c1.09,0,1.56.47,1.57,1.22,0,.66-.35,1.29-1.57,1.29h-.75ZM907.5,663.01l-1.47-3.73c.86-.73.96-1.21.96-2-.01-1.39-1-2.24-2.61-2.24h-2.02v7.98h1.13v-3.58h1.38l1.43,3.58h1.2Z"/>
    <path class="st2" d="M904.71,652.61c-3.49,0-6.34,2.85-6.34,6.32s2.85,6.32,6.34,6.32,6.3-2.81,6.3-6.32-2.83-6.32-6.3-6.32M904.71,666.17c-4,0-7.26-3.25-7.26-7.25s3.26-7.23,7.26-7.23,7.24,3.25,7.24,7.23-3.26,7.25-7.24,7.25"/>
    <polygon class="st2" points="522.93 591.46 503.46 651.91 480 591.84 473.98 591.84 502.19 665.55 504.83 665.55 524.99 600.57 545.5 665.55 548.14 665.55 576.21 591.84 570.05 591.84 546.93 651.86 527.21 591.46 522.93 591.46"/>
    <polygon class="st2" points="600.54 591.77 600.54 664.94 636.34 664.94 636.34 660.23 606.21 660.23 606.21 591.77 600.54 591.77"/>
    <polygon class="st2" points="646.78 591.77 646.78 664.94 682.57 664.94 682.57 660.23 652.43 660.23 652.43 591.77 646.78 591.77"/>
    <rect class="st2" x="692.55" y="591.78" width="5.67" height="73.16"/>
    <rect class="st2" x="584.42" y="591.78" width="5.7" height="73.16"/>
    <path class="st2" d="M737.83,600.59l14.12,34.39h-28.13l14-34.39ZM736.51,591.39l-30.26,73.55h5.27l10.37-25.28h31.99l10.34,25.28h5.3l-30.24-73.55h-2.77Z"/>
    <polygon class="st2" points="838.73 591.92 810.89 625.88 783.06 591.92 777.37 591.92 777.37 664.94 783.06 664.94 783.06 600.19 783.27 600.19 810.89 634.31 838.49 600.19 838.73 600.19 838.73 664.94 844.4 664.94 844.4 591.92 838.73 591.92"/>
    <path class="st2" d="M891.35,603.77c-4.62-5.97-11.2-7.39-16.23-7.39-8.77,0-15.4,6-15.4,13.95,0,19.47,34.78,10.17,34.78,35.75,0,11.24-9.3,20.01-21.2,20.01-5.99,0-12.41-1.64-18.74-6.43v-6.63c7.12,6.75,12.75,7.82,18.42,7.82,8.68,0,15.39-6.32,15.39-14.56,0-20.77-34.76-11.68-34.76-35.75,0-10.8,9.39-19.36,20.99-19.39,5.89,0,13.4,2.41,16.76,6.42v6.2Z"/>
    <polygon class="st2" points="291.08 592 291.08 665.15 328.68 665.15 328.68 655.69 301.59 655.69 301.59 592 291.08 592"/>
    <polygon class="st2" points="335.41 592 335.41 665.15 373.02 665.15 373.02 655.69 345.93 655.69 345.93 592 335.41 592"/>
    <polygon class="st2" points="379.79 592 379.79 665.15 422.27 665.15 422.27 655.69 390.31 655.69 390.31 632.98 420.25 632.98 420.25 623.52 390.31 623.52 390.31 601.43 421.31 601.43 421.31 592 379.79 592"/>
    <path class="st2" d="M439.63,623.97v-22.96h6.75c10.19,0,14.27,4.19,14.38,11.04.11,6.13-3.12,11.92-14.38,11.92h-6.75ZM476.25,665.13l-13.54-34.17c8.05-6.66,8.96-11.17,8.87-18.49-.11-12.65-9.2-20.47-24.02-20.47h-18.45v73.16h10.51v-32.71s8.68,0,12.52-.02l13.22,32.71h10.87Z"/>
    <polygon class="st2" points="241.82 592 241.82 665.03 284.21 665.03 284.21 655.59 252.31 655.59 252.31 632.9 282.18 632.9 282.18 623.48 252.31 623.48 252.31 601.43 283.25 601.43 283.25 592 241.82 592"/>
    <polygon class="st2" points="223.11 592 219.39 596.02 192.46 625.33 192.46 592 181.97 592 181.97 664.88 192.46 664.88 192.46 639.86 204.13 627.07 219.41 664.9 230.25 664.9 230.25 664.89 226.43 655.48 211.61 618.86 227.55 601.4 236.14 592 223.11 592"/>
  </g>
  <polygon class="st0" points="181.93 333.83 181.93 555.1 212.8 555.1 212.8 503.2 235.44 480.7 266.93 555.1 298.21 555.1 256.63 456.38 285.82 424.04 342.43 555.1 354.32 555.1 396.8 453.73 439.96 555.1 451.67 555.1 516.37 405.87 484.69 405.87 445.75 496.41 407.98 405.87 386.13 405.87 348.04 496.41 308.88 405.87 267.82 405.87 212.8 460.78 212.8 333.83 181.93 333.83"/>
  <g>
    <path class="st1" d="M609.45,404.55l35.89,150.63h-28.48l-6.27-31.86h-36.07l-6.27,31.86h-28.48l35.89-150.63h33.79ZM605.84,498.43l-13.1-67.72h-.38l-13.1,67.72h26.58Z"/>
    <path class="st1" d="M654.83,404.55h27.34v125.73h48.42v24.89h-75.76v-150.63Z"/>
    <path class="st1" d="M818.49,429.44h-48.42v35.44h45.57v24.89h-45.57v40.51h50.31v24.89h-77.65v-150.63h75.76v24.89Z"/>
    <path class="st1" d="M856.08,512.56c0,3.52.25,6.72.76,9.6.51,2.88,1.45,5.31,2.85,7.28,1.39,1.97,3.26,3.52,5.6,4.64,2.34,1.13,5.28,1.69,8.83,1.69,4.18,0,7.94-1.51,11.3-4.53,3.35-3.02,5.03-7.7,5.03-14.03,0-3.38-.41-6.29-1.23-8.76-.83-2.46-2.19-4.67-4.08-6.65-1.9-1.97-4.4-3.76-7.5-5.38-3.1-1.62-6.93-3.27-11.49-4.96-6.08-2.25-11.33-4.71-15.76-7.38-4.43-2.67-8.14-5.8-11.11-9.39-2.98-3.59-5.16-7.73-6.55-12.45-1.39-4.71-2.09-10.16-2.09-16.35,0-14.91,3.73-26.02,11.2-33.33,7.47-7.31,17.72-10.97,30.76-10.97,6.08,0,11.68.74,16.8,2.22,5.12,1.48,9.55,3.87,13.29,7.17,3.73,3.31,6.65,7.52,8.73,12.66,2.09,5.14,3.13,11.29,3.13,18.46v4.22h-26.2c0-7.17-1.14-12.69-3.42-16.56-2.28-3.87-6.08-5.8-11.39-5.8-3.04,0-5.57.49-7.59,1.48-2.03.99-3.64,2.29-4.84,3.9-1.21,1.62-2.03,3.48-2.47,5.59-.45,2.11-.67,4.29-.67,6.54,0,4.64.88,8.54,2.66,11.71,1.77,3.16,5.57,6.09,11.39,8.76l21.07,10.13c5.19,2.53,9.43,5.17,12.72,7.91,3.29,2.74,5.92,5.69,7.88,8.86s3.32,6.65,4.08,10.44,1.14,8.02,1.14,12.66c0,15.9-4.15,27.46-12.44,34.71-8.29,7.25-19.84,10.86-34.65,10.86s-26.49-3.73-33.13-11.18c-6.65-7.45-9.97-18.14-9.97-32.07v-6.12h27.34v4.43Z"/>
    <path class="st1" d="M1011.96,429.44h-29.62v125.73h-27.34v-125.73h-29.62v-24.89h86.58v24.89Z"/>
    <path class="st1" d="M1073.48,404.55l35.89,150.63h-28.48l-6.27-31.86h-36.07l-6.27,31.86h-28.48l35.89-150.63h33.79ZM1069.87,498.43l-13.1-67.72h-.38l-13.1,67.72h26.58Z"/>
  </g>
  <g>
    <path class="st2" d="M1927.26,658.85v-2.52h.76c1.1,0,1.56.47,1.57,1.22,0,.66-.35,1.3-1.57,1.3h-.76ZM1931.28,663.34l-1.48-3.74c.86-.73.96-1.21.96-2.01-.01-1.39-1-2.24-2.62-2.24h-2.03v7.99h1.13v-3.59h1.39l1.44,3.58h1.2Z"/>
    <path class="st2" d="M1928.47,652.92c-3.5,0-6.35,2.85-6.35,6.33s2.85,6.33,6.35,6.33,6.32-2.82,6.32-6.33-2.84-6.33-6.32-6.33M1928.47,666.51c-4.01,0-7.27-3.26-7.27-7.26s3.26-7.25,7.27-7.25,7.26,3.25,7.26,7.25-3.27,7.26-7.26,7.26"/>
    <polygon class="st2" points="1545.92 591.65 1526.41 652.22 1502.9 592.02 1496.87 592.02 1525.13 665.88 1527.78 665.88 1547.99 600.77 1568.53 665.88 1571.18 665.88 1599.31 592.02 1593.14 592.02 1569.97 652.17 1550.2 591.65 1545.92 591.65"/>
    <polygon class="st2" points="1623.69 591.96 1623.69 665.28 1659.56 665.28 1659.56 660.55 1629.37 660.55 1629.37 591.96 1623.69 591.96"/>
    <polygon class="st2" points="1670.02 591.96 1670.02 665.28 1705.89 665.28 1705.89 660.55 1675.68 660.55 1675.68 591.96 1670.02 591.96"/>
    <rect class="st2" x="1715.89" y="591.97" width="5.68" height="73.31"/>
    <rect class="st2" x="1607.53" y="591.97" width="5.72" height="73.31"/>
    <path class="st2" d="M1761.25,600.8l14.15,34.46h-28.18l14.03-34.46ZM1759.93,591.58l-30.32,73.7h5.28l10.39-25.33h32.05l10.36,25.33h5.31l-30.31-73.7h-2.77Z"/>
    <polygon class="st2" points="1862.36 592.1 1834.47 626.14 1806.58 592.1 1800.88 592.1 1800.88 665.28 1806.58 665.28 1806.58 600.39 1806.79 600.39 1834.47 634.58 1862.13 600.39 1862.36 600.39 1862.36 665.28 1868.05 665.28 1868.05 592.1 1862.36 592.1"/>
    <path class="st2" d="M1915.09,603.98c-4.63-5.99-11.22-7.41-16.27-7.41-8.79,0-15.44,6.02-15.44,13.98,0,19.51,34.85,10.19,34.85,35.82,0,11.26-9.32,20.05-21.25,20.05-6,0-12.43-1.64-18.77-6.44v-6.64c7.14,6.77,12.77,7.84,18.46,7.84,8.7,0,15.43-6.34,15.43-14.59,0-20.81-34.83-11.71-34.83-35.83,0-10.82,9.41-19.4,21.03-19.43,5.9,0,13.43,2.41,16.79,6.43v6.21Z"/>
    <polygon class="st2" points="1313.59 592.19 1313.59 665.49 1351.27 665.49 1351.27 656.01 1324.12 656.01 1324.12 592.19 1313.59 592.19"/>
    <polygon class="st2" points="1358.02 592.19 1358.02 665.49 1395.7 665.49 1395.7 656.01 1368.55 656.01 1368.55 592.19 1358.02 592.19"/>
    <polygon class="st2" points="1402.49 592.19 1402.49 665.49 1445.06 665.49 1445.06 656.01 1413.02 656.01 1413.02 633.25 1443.03 633.25 1443.03 623.78 1413.02 623.78 1413.02 601.64 1444.09 601.64 1444.09 592.19 1402.49 592.19"/>
    <path class="st2" d="M1462.45,624.22v-23h6.77c10.21,0,14.3,4.2,14.41,11.06.11,6.14-3.12,11.94-14.41,11.94h-6.77ZM1499.14,665.47l-13.57-34.24c8.07-6.67,8.98-11.19,8.89-18.53-.11-12.68-9.22-20.51-24.06-20.51h-18.48v73.31h10.54v-32.78s8.7,0,12.55-.02l13.25,32.77h10.89Z"/>
    <polygon class="st2" points="1264.23 592.19 1264.23 665.36 1306.71 665.36 1306.71 655.91 1274.75 655.91 1274.75 633.17 1304.68 633.17 1304.68 623.73 1274.75 623.73 1274.75 601.63 1305.75 601.63 1305.75 592.19 1264.23 592.19"/>
    <polygon class="st2" points="1245.48 592.19 1241.76 596.21 1214.77 625.58 1214.77 592.19 1204.26 592.19 1204.26 665.22 1214.77 665.22 1214.77 640.15 1226.46 627.33 1241.78 665.23 1252.64 665.23 1252.64 665.22 1248.81 655.8 1233.96 619.1 1249.94 601.61 1258.54 592.19 1245.48 592.19"/>
  </g>
  <polygon class="st0" points="1204.22 333.49 1204.22 555.21 1235.16 555.21 1235.16 503.21 1257.84 480.66 1289.39 555.21 1320.74 555.21 1279.07 456.29 1308.32 423.88 1365.05 555.21 1376.96 555.21 1419.53 453.64 1462.78 555.21 1474.51 555.21 1539.34 405.68 1507.6 405.68 1468.58 496.41 1430.73 405.68 1408.84 405.68 1370.67 496.41 1331.43 405.68 1290.29 405.68 1235.16 460.7 1235.16 333.49 1204.22 333.49"/>
  <g>
    <path class="st1" d="M1611.88,515.76h.57l20.17-111.61h28.35l-31.2,150.93h-35.2l-31.2-150.93h29.3l19.22,111.61Z"/>
    <path class="st1" d="M1672.39,404.14h27.4v150.93h-27.4v-150.93Z"/>
    <path class="st1" d="M1759.9,462.49h.38l19.03-58.35h29.68l-35.2,91.53v59.4h-27.4v-59.4l-35.2-91.53h30.82l17.88,58.35Z"/>
    <path class="st1" d="M1868.92,404.14l35.96,150.93h-28.54l-6.28-31.92h-36.15l-6.28,31.92h-28.54l35.96-150.93h33.86ZM1865.3,498.21l-13.13-67.86h-.38l-13.13,67.86h26.64Z"/>
  </g>
  <g>
    <path class="st2" d="M2766.11,659.92v-2.53h.76c1.1,0,1.57.48,1.58,1.23,0,.66-.36,1.31-1.58,1.31h-.76ZM2770.16,664.44l-1.49-3.76c.87-.74.97-1.22.97-2.02-.01-1.4-1.01-2.26-2.63-2.26h-2.04v8.05h1.14v-3.61h1.39l1.45,3.61h1.21Z"/>
    <path class="st2" d="M2767.34,653.95c-3.52,0-6.4,2.87-6.4,6.37s2.87,6.37,6.4,6.37,6.36-2.84,6.36-6.37-2.86-6.37-6.36-6.37M2767.34,667.63c-4.04,0-7.32-3.28-7.32-7.31s3.28-7.3,7.32-7.3,7.31,3.27,7.31,7.3-3.29,7.31-7.31,7.31"/>
    <polygon class="st2" points="2382.21 592.27 2362.56 653.24 2338.9 592.64 2332.82 592.64 2361.28 667 2363.94 667 2384.28 601.45 2404.97 667 2407.64 667 2435.95 592.64 2429.74 592.64 2406.41 653.2 2386.51 592.27 2382.21 592.27"/>
    <polygon class="st2" points="2460.5 592.58 2460.5 666.4 2496.61 666.4 2496.61 661.64 2466.22 661.64 2466.22 592.58 2460.5 592.58"/>
    <polygon class="st2" points="2507.14 592.58 2507.14 666.4 2543.25 666.4 2543.25 661.64 2512.84 661.64 2512.84 592.58 2507.14 592.58"/>
    <rect class="st2" x="2553.32" y="592.59" width="5.72" height="73.81"/>
    <rect class="st2" x="2444.23" y="592.59" width="5.75" height="73.81"/>
    <path class="st2" d="M2598.99,601.48l14.25,34.69h-28.37l14.13-34.69ZM2597.66,592.19l-30.52,74.2h5.32l10.46-25.5h32.27l10.43,25.5h5.35l-30.51-74.2h-2.79Z"/>
    <polygon class="st2" points="2700.78 592.73 2672.7 626.99 2644.62 592.73 2638.88 592.73 2638.88 666.4 2644.62 666.4 2644.62 601.07 2644.83 601.07 2672.7 635.49 2700.54 601.07 2700.78 601.07 2700.78 666.4 2706.5 666.4 2706.5 592.73 2700.78 592.73"/>
    <path class="st2" d="M2753.87,604.68c-4.66-6.03-11.3-7.45-16.38-7.45-8.85,0-15.54,6.06-15.54,14.07,0,19.64,35.09,10.26,35.09,36.07,0,11.33-9.38,20.19-21.39,20.19-6.04,0-12.52-1.65-18.9-6.49v-6.69c7.18,6.81,12.86,7.89,18.58,7.89,8.76,0,15.53-6.38,15.53-14.69,0-20.95-35.07-11.78-35.07-36.07,0-10.89,9.48-19.53,21.17-19.56,5.94,0,13.52,2.43,16.91,6.48v6.26Z"/>
    <polygon class="st2" points="2148.31 592.81 2148.31 666.6 2186.24 666.6 2186.24 657.06 2158.91 657.06 2158.91 592.81 2148.31 592.81"/>
    <polygon class="st2" points="2193.03 592.81 2193.03 666.6 2230.97 666.6 2230.97 657.06 2203.64 657.06 2203.64 592.81 2193.03 592.81"/>
    <polygon class="st2" points="2237.81 592.81 2237.81 666.6 2280.66 666.6 2280.66 657.06 2248.41 657.06 2248.41 634.15 2278.62 634.15 2278.62 624.61 2248.41 624.61 2248.41 602.33 2279.68 602.33 2279.68 592.81 2237.81 592.81"/>
    <path class="st2" d="M2298.17,625.06v-23.16h6.81c10.28,0,14.39,4.23,14.5,11.14.11,6.19-3.14,12.02-14.5,12.02h-6.81ZM2335.11,666.58l-13.66-34.47c8.12-6.71,9.04-11.27,8.95-18.66-.11-12.77-9.29-20.65-24.23-20.65h-18.61v73.8h10.61v-33s8.76,0,12.63-.02l13.34,32.99h10.97Z"/>
    <polygon class="st2" points="2098.61 592.81 2098.61 666.48 2141.39 666.48 2141.39 656.96 2109.21 656.96 2109.21 634.07 2139.33 634.07 2139.33 624.56 2109.21 624.56 2109.21 602.32 2140.42 602.32 2140.42 592.81 2098.61 592.81"/>
    <polygon class="st2" points="2079.74 592.81 2075.99 596.86 2048.82 626.43 2048.82 592.81 2038.24 592.81 2038.24 666.33 2048.82 666.33 2048.82 641.09 2060.6 628.19 2076.02 666.35 2086.94 666.35 2086.94 666.34 2083.09 656.85 2068.14 619.9 2084.23 602.29 2092.89 592.81 2079.74 592.81"/>
  </g>
  <polygon class="st0" points="2038.2 332.37 2038.2 555.59 2069.35 555.59 2069.35 503.23 2092.18 480.53 2123.95 555.59 2155.5 555.59 2113.56 456 2143 423.37 2200.12 555.59 2212.11 555.59 2254.96 453.33 2298.5 555.59 2310.32 555.59 2375.58 405.04 2343.62 405.04 2304.34 496.38 2266.24 405.04 2244.2 405.04 2205.77 496.38 2166.27 405.04 2124.85 405.04 2069.35 460.44 2069.35 332.37 2038.2 332.37"/>
  <g>
    <path class="st1" d="M2407.33,447.87c.96-9.72,3.07-18.05,6.32-25.01,3.26-6.95,7.95-12.38,14.08-16.28,6.13-3.9,14.36-5.85,24.71-5.85s18.58,1.95,24.71,5.85c6.13,3.9,10.82,9.33,14.08,16.28,3.25,6.95,5.36,15.29,6.32,25.01.96,9.72,1.44,20.33,1.44,31.82s-.48,22.28-1.44,31.92c-.96,9.65-3.06,17.95-6.32,24.9-3.26,6.95-7.95,12.27-14.08,15.96-6.13,3.69-14.37,5.53-24.71,5.53s-18.58-1.84-24.71-5.53c-6.13-3.69-10.82-9.01-14.08-15.96-3.25-6.95-5.36-15.25-6.32-24.9-.96-9.65-1.44-20.29-1.44-31.92s.48-22.1,1.44-31.82ZM2434.14,505.76c.45,7.17,1.34,12.98,2.68,17.45,1.34,4.47,3.26,7.73,5.75,9.79s5.77,3.08,9.87,3.08,7.37-1.03,9.86-3.08c2.49-2.06,4.41-5.32,5.75-9.79,1.34-4.47,2.23-10.28,2.68-17.45.45-7.16.67-15.85.67-26.07s-.23-18.87-.67-25.96c-.45-7.09-1.34-12.91-2.68-17.45-1.34-4.54-3.25-7.84-5.75-9.9-2.49-2.05-5.78-3.09-9.86-3.09s-7.38,1.03-9.87,3.09c-2.49,2.06-4.41,5.36-5.75,9.9-1.34,4.54-2.24,10.36-2.68,17.45-.45,7.1-.67,15.75-.67,25.96s.22,18.91.67,26.07Z"/>
    <path class="st1" d="M2566.21,403.71c11.49,0,20.43,3.23,26.81,9.68,6.39,6.46,9.58,16.28,9.58,29.47,0,10.21-1.85,18.55-5.55,25.01-3.7,6.46-9.45,10.61-17.24,12.45v.43c6.9,1.14,11.94,3.62,15.13,7.45,3.19,3.83,5.17,10,5.94,18.51.25,2.84.45,5.92.57,9.26.12,3.33.25,7.06.38,11.17.25,8.09.64,14.26,1.15,18.51.77,4.26,2.43,7.17,4.98,8.72v1.28h-29.88c-1.41-2.13-2.3-4.58-2.68-7.34s-.64-5.64-.77-8.62l-.77-29.16c-.26-5.96-1.6-10.64-4.03-14.05s-6.51-5.11-12.26-5.11h-14.75v64.27h-27.58v-151.95h50.95ZM2554.33,470.11c6.64,0,11.75-1.74,15.32-5.21,3.58-3.47,5.37-9.33,5.37-17.56,0-14.04-6.39-21.07-19.16-21.07h-13.02v43.84h11.49Z"/>
    <path class="st1" d="M2643.97,512.67c0,3.55.25,6.78.77,9.68.51,2.91,1.47,5.36,2.88,7.34,1.4,1.99,3.29,3.55,5.65,4.68,2.36,1.14,5.33,1.7,8.91,1.7,4.21,0,8.01-1.52,11.39-4.57,3.38-3.05,5.08-7.77,5.08-14.15,0-3.4-.41-6.35-1.24-8.83-.83-2.48-2.2-4.71-4.12-6.7-1.91-1.98-4.44-3.79-7.57-5.43-3.13-1.63-7-3.3-11.59-5-6.13-2.27-11.43-4.75-15.9-7.45-4.47-2.7-8.21-5.85-11.21-9.47-3-3.62-5.2-7.8-6.61-12.56-1.4-4.75-2.11-10.25-2.11-16.49,0-15.04,3.77-26.25,11.3-33.62,7.53-7.38,17.88-11.07,31.03-11.07,6.13,0,11.78.75,16.95,2.24,5.17,1.49,9.63,3.9,13.41,7.24,3.76,3.33,6.7,7.59,8.81,12.77,2.11,5.18,3.16,11.39,3.16,18.62v4.26h-26.43c0-7.24-1.15-12.8-3.45-16.71-2.3-3.9-6.13-5.85-11.49-5.85-3.07,0-5.62.5-7.66,1.49-2.04,1-3.67,2.31-4.88,3.94-1.22,1.63-2.04,3.51-2.49,5.64-.45,2.13-.67,4.33-.67,6.6,0,4.68.9,8.62,2.69,11.81,1.79,3.19,5.61,6.14,11.49,8.83l21.26,10.21c5.24,2.55,9.51,5.21,12.83,7.98,3.32,2.77,5.97,5.74,7.95,8.94,1.98,3.19,3.35,6.7,4.12,10.54.77,3.83,1.15,8.09,1.15,12.77,0,16.04-4.18,27.7-12.54,35.01-8.37,7.31-20.01,10.96-34.95,10.96s-26.72-3.76-33.43-11.28c-6.7-7.52-10.05-18.3-10.05-32.35v-6.17h27.58v4.47Z"/>
    <path class="st1" d="M2781.87,403.71l36.2,151.95h-28.73l-6.32-32.14h-36.39l-6.32,32.14h-28.73l36.2-151.95h34.09ZM2778.24,498.41l-13.22-68.31h-.38l-13.22,68.31h26.81Z"/>
  </g>
</svg>