<?xml version="1.0" encoding="UTF-8"?>
<svg id="katman_1" data-name="katman 1" xmlns="http://www.w3.org/2000/svg" viewBox="0 0 541.78 232.91">
  <defs>
    <style>
      .cls-1 {
        fill: #b31917;
      }

      .cls-2 {
        fill: #45494b;
      }

      .cls-3 {
        fill: #a3a6a6;
      }
    </style>
  </defs>
  <g>
    <path class="cls-3" d="M505.68,227.55v-1.76h.53c.77,0,1.09.33,1.1.85,0,.46-.25.91-1.1.91h-.53ZM508.5,230.69l-1.03-2.61c.6-.51.67-.85.67-1.4,0-.97-.7-1.57-1.83-1.57h-1.42v5.59h.79v-2.51h.97l1.01,2.51h.84Z"/>
    <path class="cls-3" d="M506.53,223.4c-2.45,0-4.44,1.99-4.44,4.43s1.99,4.43,4.44,4.43,4.42-1.97,4.42-4.43-1.99-4.43-4.42-4.43M506.53,232.91c-2.81,0-5.09-2.28-5.09-5.08s2.28-5.07,5.09-5.07,5.08,2.27,5.08,5.07-2.29,5.08-5.08,5.08"/>
    <polygon class="cls-3" points="238.98 180.55 225.34 222.91 208.9 180.81 204.68 180.81 224.44 232.47 226.3 232.47 240.43 186.93 254.8 232.47 256.65 232.47 276.32 180.81 272.01 180.81 255.8 222.88 241.98 180.55 238.98 180.55"/>
    <polygon class="cls-3" points="293.37 180.77 293.37 232.05 318.46 232.05 318.46 228.74 297.35 228.74 297.35 180.77 293.37 180.77"/>
    <polygon class="cls-3" points="325.78 180.77 325.78 232.05 350.86 232.05 350.86 228.74 329.73 228.74 329.73 180.77 325.78 180.77"/>
    <rect class="cls-3" x="357.85" y="180.77" width="3.97" height="51.27"/>
    <rect class="cls-3" x="282.07" y="180.77" width="4" height="51.27"/>
    <path class="cls-3" d="M389.58,186.95l9.9,24.1h-19.71l9.81-24.1ZM388.66,180.5l-21.2,51.55h3.69l7.27-17.71h22.42l7.25,17.71h3.72l-21.2-51.55h-1.94Z"/>
    <polygon class="cls-3" points="460.3 180.87 440.79 204.67 421.28 180.87 417.3 180.87 417.3 232.05 421.28 232.05 421.28 186.66 421.43 186.66 440.79 210.58 460.13 186.66 460.3 186.66 460.3 232.05 464.27 232.05 464.27 180.87 460.3 180.87"/>
    <path class="cls-3" d="M497.18,189.18c-3.24-4.19-7.85-5.18-11.38-5.18-6.15,0-10.8,4.21-10.8,9.78,0,13.64,24.37,7.12,24.37,25.06,0,7.87-6.52,14.02-14.86,14.02-4.2,0-8.69-1.15-13.13-4.51v-4.65c4.99,4.73,8.93,5.48,12.91,5.48,6.08,0,10.79-4.43,10.79-10.21,0-14.56-24.36-8.19-24.36-25.06,0-7.57,6.58-13.57,14.71-13.59,4.12,0,9.39,1.69,11.75,4.5v4.35Z"/>
    <polygon class="cls-3" points="76.49 180.93 76.49 232.19 102.85 232.19 102.85 225.56 83.86 225.56 83.86 180.93 76.49 180.93"/>
    <polygon class="cls-3" points="107.57 180.93 107.57 232.19 133.92 232.19 133.92 225.56 114.94 225.56 114.94 180.93 107.57 180.93"/>
    <polygon class="cls-3" points="138.67 180.93 138.67 232.19 168.44 232.19 168.44 225.56 146.04 225.56 146.04 209.65 167.02 209.65 167.02 203.02 146.04 203.02 146.04 187.54 167.76 187.54 167.76 180.93 138.67 180.93"/>
    <path class="cls-3" d="M180.61,203.33v-16.09h4.73c7.14,0,10,2.94,10.08,7.74.08,4.3-2.18,8.35-10.08,8.35h-4.73ZM206.27,232.18l-9.49-23.95c5.64-4.66,6.28-7.83,6.22-12.96-.08-8.87-6.45-14.35-16.83-14.35h-12.93v51.27h7.37v-22.92s6.08,0,8.78-.01l9.27,22.92h7.62Z"/>
    <polygon class="cls-3" points="41.97 180.93 41.97 232.11 71.69 232.11 71.69 225.49 49.33 225.49 49.33 209.59 70.26 209.59 70.26 202.99 49.33 202.99 49.33 187.53 71.01 187.53 71.01 180.93 41.97 180.93"/>
    <polygon class="cls-3" points="28.86 180.93 26.26 183.74 7.38 204.28 7.38 180.93 .03 180.93 .03 232 7.38 232 7.38 214.47 15.56 205.51 26.27 232.01 33.86 232.01 33.86 232.01 31.19 225.42 20.8 199.75 31.98 187.52 37.99 180.93 28.86 180.93"/>
  </g>
  <polygon class="cls-1" points="0 0 0 155.07 21.64 155.07 21.64 118.7 37.5 102.93 59.57 155.07 81.49 155.07 52.35 85.88 72.81 63.22 112.49 155.07 120.82 155.07 150.58 84.03 180.83 155.07 189.04 155.07 234.38 50.49 212.18 50.49 184.89 113.94 158.42 50.49 143.11 50.49 116.41 113.94 88.97 50.49 60.2 50.49 21.64 88.97 21.64 0 0 0"/>
  <g>
    <path class="cls-2" d="M256.43,80.24c.67-6.75,2.13-12.54,4.39-17.37,2.26-4.83,5.52-8.6,9.78-11.31,4.26-2.71,9.98-4.07,17.16-4.07s12.91,1.36,17.16,4.07c4.26,2.71,7.52,6.48,9.78,11.31,2.26,4.83,3.72,10.62,4.39,17.37.67,6.75,1,14.12,1,22.1s-.33,15.48-1,22.18c-.67,6.7-2.13,12.47-4.39,17.3-2.26,4.83-5.52,8.53-9.78,11.09-4.26,2.56-9.98,3.84-17.16,3.84s-12.91-1.28-17.16-3.84c-4.26-2.56-7.52-6.26-9.78-11.09-2.26-4.83-3.73-10.59-4.39-17.3-.67-6.7-1-14.09-1-22.18s.33-15.35,1-22.1ZM275.06,120.45c.31,4.98.93,9.02,1.86,12.12.93,3.1,2.26,5.37,3.99,6.8s4.01,2.14,6.85,2.14,5.12-.71,6.85-2.14c1.73-1.43,3.06-3.7,3.99-6.8.93-3.11,1.55-7.14,1.86-12.12.31-4.98.47-11.01.47-18.11s-.16-13.11-.47-18.04c-.31-4.93-.93-8.97-1.86-12.12-.93-3.15-2.26-5.44-3.99-6.87-1.73-1.43-4.01-2.14-6.85-2.14s-5.12.72-6.85,2.14c-1.73,1.43-3.06,3.72-3.99,6.87-.93,3.16-1.55,7.2-1.86,12.12-.31,4.93-.47,10.94-.47,18.04s.15,13.14.47,18.11Z"/>
    <path class="cls-2" d="M366.81,49.56c7.98,0,14.19,2.24,18.63,6.73,4.44,4.49,6.65,11.31,6.65,20.48,0,7.1-1.29,12.89-3.86,17.37-2.57,4.49-6.57,7.37-11.98,8.65v.3c4.79.79,8.29,2.51,10.51,5.17,2.22,2.66,3.59,6.95,4.13,12.86.18,1.97.31,4.12.4,6.43.09,2.32.18,4.91.27,7.76.18,5.62.44,9.91.8,12.86.53,2.96,1.69,4.98,3.46,6.06v.89h-20.76c-.98-1.48-1.6-3.18-1.86-5.1s-.45-3.92-.53-5.99l-.53-20.25c-.18-4.14-1.11-7.39-2.8-9.76s-4.52-3.55-8.52-3.55h-10.24v44.65h-19.16V49.56h35.39ZM358.56,95.69c4.61,0,8.16-1.21,10.64-3.62,2.48-2.41,3.73-6.48,3.73-12.2,0-9.76-4.44-14.64-13.31-14.64h-9.05v30.46h7.98Z"/>
    <path class="cls-2" d="M420.83,125.26c0,2.47.18,4.71.53,6.73.36,2.02,1.02,3.72,2,5.1.97,1.38,2.28,2.46,3.93,3.25,1.64.79,3.7,1.18,6.19,1.18,2.93,0,5.56-1.06,7.92-3.18,2.35-2.12,3.53-5.4,3.53-9.83,0-2.37-.29-4.41-.86-6.14-.58-1.72-1.53-3.27-2.86-4.66-1.33-1.38-3.08-2.63-5.26-3.77-2.17-1.13-4.86-2.29-8.05-3.47-4.26-1.58-7.94-3.3-11.04-5.17-3.11-1.87-5.7-4.07-7.79-6.58-2.08-2.51-3.61-5.42-4.59-8.72-.97-3.3-1.46-7.12-1.46-11.46,0-10.45,2.62-18.23,7.85-23.36,5.23-5.12,12.42-7.69,21.56-7.69,4.26,0,8.18.52,11.78,1.55,3.59,1.04,6.69,2.71,9.31,5.03,2.61,2.32,4.66,5.27,6.12,8.87,1.46,3.6,2.2,7.91,2.2,12.94v2.96h-18.36c0-5.03-.8-8.9-2.39-11.61-1.6-2.71-4.26-4.07-7.98-4.07-2.13,0-3.9.35-5.32,1.04-1.42.69-2.55,1.6-3.39,2.74-.84,1.13-1.42,2.44-1.73,3.92-.31,1.48-.47,3.01-.47,4.58,0,3.25.62,5.99,1.87,8.2,1.24,2.22,3.9,4.27,7.98,6.14l14.77,7.1c3.64,1.77,6.61,3.62,8.91,5.54,2.31,1.92,4.15,3.99,5.52,6.21,1.38,2.22,2.33,4.66,2.86,7.32s.8,5.62.8,8.87c0,11.14-2.9,19.25-8.71,24.32-5.81,5.08-13.9,7.61-24.28,7.61s-18.56-2.61-23.22-7.84c-4.66-5.22-6.98-12.71-6.98-22.47v-4.29h19.16v3.1Z"/>
    <path class="cls-2" d="M516.63,49.56l25.15,105.56h-19.96l-4.39-22.33h-25.28l-4.39,22.33h-19.96l25.15-105.56h23.68ZM514.11,115.35l-9.18-47.46h-.27l-9.18,47.46h18.63Z"/>
  </g>
</svg>