<?xml version="1.0" encoding="UTF-8"?>
<svg id="katman_1" data-name="katman 1" xmlns="http://www.w3.org/2000/svg" viewBox="0 0 511.55 232.88">
  <defs>
    <style>
      .cls-1 {
        fill: #b31917;
      }

      .cls-2 {
        fill: #45494b;
      }

      .cls-3 {
        fill: #a3a6a6;
      }
    </style>
  </defs>
  <g>
    <path class="cls-3" d="M505.62,227.52v-1.76h.53c.77,0,1.09.33,1.1.85,0,.46-.25.91-1.1.91h-.53ZM508.44,230.66l-1.03-2.61c.6-.51.67-.85.67-1.4,0-.97-.7-1.57-1.83-1.57h-1.42v5.59h.79v-2.51h.97l1.01,2.51h.84Z"/>
    <path class="cls-3" d="M506.47,223.37c-2.45,0-4.44,1.99-4.44,4.43s1.99,4.43,4.44,4.43,4.42-1.97,4.42-4.43-1.99-4.43-4.42-4.43M506.47,232.88c-2.81,0-5.09-2.28-5.09-5.08s2.28-5.07,5.09-5.07,5.08,2.27,5.08,5.07-2.29,5.08-5.08,5.08"/>
    <polygon class="cls-3" points="238.95 180.53 225.31 222.89 208.87 180.79 204.65 180.79 224.42 232.44 226.27 232.44 240.4 186.91 254.77 232.44 256.62 232.44 276.29 180.79 271.97 180.79 255.77 222.85 241.95 180.53 238.95 180.53"/>
    <polygon class="cls-3" points="293.34 180.75 293.34 232.02 318.42 232.02 318.42 228.71 297.31 228.71 297.31 180.75 293.34 180.75"/>
    <polygon class="cls-3" points="325.74 180.75 325.74 232.02 350.82 232.02 350.82 228.71 329.69 228.71 329.69 180.75 325.74 180.75"/>
    <rect class="cls-3" x="357.81" y="180.75" width="3.97" height="51.27"/>
    <rect class="cls-3" x="282.04" y="180.75" width="4" height="51.27"/>
    <path class="cls-3" d="M389.54,186.93l9.9,24.1h-19.71l9.81-24.1ZM388.61,180.48l-21.2,51.54h3.69l7.27-17.71h22.41l7.25,17.71h3.72l-21.19-51.54h-1.94Z"/>
    <polygon class="cls-3" points="460.24 180.85 440.73 204.65 421.23 180.85 417.25 180.85 417.25 232.02 421.23 232.02 421.23 186.64 421.38 186.64 440.73 210.55 460.08 186.64 460.24 186.64 460.24 232.02 464.22 232.02 464.22 180.85 460.24 180.85"/>
    <path class="cls-3" d="M497.12,189.15c-3.24-4.19-7.85-5.18-11.38-5.18-6.14,0-10.79,4.21-10.79,9.77,0,13.64,24.37,7.12,24.37,25.05,0,7.87-6.52,14.02-14.86,14.02-4.2,0-8.69-1.15-13.13-4.51v-4.65c4.99,4.73,8.93,5.48,12.91,5.48,6.08,0,10.79-4.43,10.79-10.2,0-14.55-24.36-8.19-24.36-25.05,0-7.57,6.58-13.57,14.71-13.59,4.12,0,9.39,1.69,11.74,4.5v4.35Z"/>
    <polygon class="cls-3" points="76.48 180.9 76.48 232.16 102.83 232.16 102.83 225.54 83.85 225.54 83.85 180.9 76.48 180.9"/>
    <polygon class="cls-3" points="107.55 180.9 107.55 232.16 133.9 232.16 133.9 225.54 114.92 225.54 114.92 180.9 107.55 180.9"/>
    <polygon class="cls-3" points="138.65 180.9 138.65 232.16 168.42 232.16 168.42 225.54 146.02 225.54 146.02 209.62 167 209.62 167 203 146.02 203 146.02 187.52 167.74 187.52 167.74 180.9 138.65 180.9"/>
    <path class="cls-3" d="M180.58,203.31v-16.09h4.73c7.14,0,10,2.94,10.07,7.74.08,4.3-2.18,8.35-10.07,8.35h-4.73ZM206.24,232.15l-9.49-23.95c5.64-4.66,6.28-7.83,6.22-12.96-.08-8.87-6.45-14.34-16.83-14.34h-12.93v51.26h7.37v-22.92s6.08,0,8.78-.01l9.27,22.92h7.62Z"/>
    <polygon class="cls-3" points="41.97 180.9 41.97 232.08 71.68 232.08 71.68 225.47 49.32 225.47 49.32 209.56 70.25 209.56 70.25 202.96 49.32 202.96 49.32 187.51 71 187.51 71 180.9 41.97 180.9"/>
    <polygon class="cls-3" points="28.86 180.9 26.25 183.72 7.38 204.26 7.38 180.9 .03 180.9 .03 231.98 7.38 231.98 7.38 214.45 15.56 205.48 26.27 231.99 33.86 231.99 33.86 231.98 31.18 225.39 20.8 199.73 31.97 187.5 37.99 180.9 28.86 180.9"/>
  </g>
  <polygon class="cls-1" points="0 0 0 155.05 21.64 155.05 21.64 118.68 37.5 102.91 59.57 155.05 81.48 155.05 52.35 85.87 72.8 63.21 112.47 155.05 120.8 155.05 150.57 84.02 180.81 155.05 189.02 155.05 234.35 50.48 212.15 50.48 184.87 113.93 158.4 50.48 143.09 50.48 116.4 113.93 88.96 50.48 60.19 50.48 21.64 88.96 21.64 0 0 0"/>
  <g>
    <path class="cls-2" d="M285.08,127.46h.4l14.1-78.05h19.82l-21.82,105.55h-24.61l-21.82-105.55h20.49l13.44,78.05Z"/>
    <path class="cls-2" d="M327.39,49.41h19.16v105.55h-19.16V49.41Z"/>
    <path class="cls-2" d="M388.59,90.21h.27l13.3-40.8h20.76l-24.61,64.01v41.54h-19.16v-41.54l-24.61-64.01h21.55l12.51,40.8Z"/>
    <path class="cls-2" d="M464.82,49.41l25.15,105.55h-19.96l-4.39-22.32h-25.28l-4.39,22.32h-19.96l25.15-105.55h23.68ZM462.3,115.19l-9.18-47.45h-.27l-9.18,47.45h18.63Z"/>
  </g>
</svg>