<?xml version="1.0" encoding="UTF-8"?>
<svg id="katman_1" data-name="katman 1" xmlns="http://www.w3.org/2000/svg" viewBox="0 0 541.99 61.99">
  <defs>
    <style>
      .cls-1 {
        stroke: #fcfdff;
      }

      .cls-1, .cls-2 {
        stroke-width: .75px;
      }

      .cls-1, .cls-2, .cls-3, .cls-4 {
        fill: #fff;
      }

      .cls-1, .cls-2, .cls-4 {
        stroke-miterlimit: 10;
      }

      .cls-2, .cls-4 {
        stroke: #fff;
      }
    </style>
  </defs>
  <polygon class="cls-3" points="0 0 0 50.07 6.99 50.07 6.99 38.33 12.11 33.23 19.24 50.07 26.31 50.07 16.9 27.73 23.51 20.41 36.32 50.07 39.01 50.07 48.62 27.13 58.39 50.07 61.04 50.07 75.68 16.3 68.51 16.3 59.7 36.79 51.15 16.3 46.21 16.3 37.59 36.79 28.73 16.3 19.44 16.3 6.99 28.73 6.99 0 0 0"/>
  <g>
    <path class="cls-1" d="M126.36,15.81c-.3.59-.62.87-.95.82-.33-.04-.57-.36-.72-.95-.15-.46-.32-1.32-.49-2.56-.18-1.24-.43-2.22-.76-2.91-.33-.7-.9-1.21-1.71-1.55-1.17-.46-2.81-.46-4.94,0-4.05.84-8.38,3.1-12.99,6.77-3.7,2.91-6.91,6.27-9.65,10.07-2.74,3.8-4.71,7.89-5.93,12.28-.36,1.14-.62,2.27-.8,3.39-.18,1.12-.3,2.3-.38,3.55-.08,1.24.02,2.35.3,3.32.28.97.68,1.84,1.22,2.6.53.76,1.35,1.29,2.47,1.58,1.11.3,2.43.32,3.95.06,2.74-.42,5.8-1.67,9.19-3.74,3.09-1.81,5.91-4,8.47-6.55,2.56-2.55,4.6-5.22,6.12-8.01-6.79.63-11.62,1.31-14.51,2.03-.91.46-1.49.72-1.75.76-.56.13-1.03.04-1.41-.25-.38-.3-.51-.65-.38-1.08.13-.42.47-.72,1.03-.89.25-.04.62-.01,1.1.09.48.11.8.18.95.22.1,0,.35-.04.76-.13.4-.08,1.03-.22,1.86-.41.84-.19,1.63-.37,2.39-.54,3.29-.67,6.43-1.16,9.42-1.46,4.71-.46,9.14-.57,13.29-.32,3.44.21,5.14.46,5.09.76,0,.17-1.7.32-5.09.44-4.41.17-8.48.42-12.23.76-1.22,3.55-3.82,7.15-7.82,10.83-4.1,3.84-8.41,6.56-12.91,8.17-2.28.8-4.36,1.16-6.23,1.08-2.08-.13-3.71-.74-4.9-1.84-1.19-1.1-1.9-2.51-2.13-4.24-.23-1.73-.27-3.44-.11-5.13.15-1.69.48-3.42.99-5.19,1.27-4.6,3.34-8.87,6.23-12.82,2.89-3.95,6.31-7.42,10.26-10.41,4.81-3.71,9.42-6.04,13.83-6.96,2.99-.59,5.48-.35,7.48.73,2,1.08,2.97,2.8,2.92,5.16,0,.93-.18,1.75-.53,2.47Z"/>
    <path class="cls-1" d="M136.04,31.06c.18.25.19.51.04.76-.05.13-.25.28-.61.44-.35.17-.58.3-.68.38-.61.51-1.23,1.72-1.86,3.64-.63,1.92-.77,3.3-.42,4.15h.23c.66-.04,1.92-.47,3.8-1.3,1.87-.82,3.58-1.58,5.13-2.28,1.54-.7,2.39-.98,2.54-.85l-1.67,1.08c-1.17.72-2.46,1.51-3.87,2.37-1.42.87-2.41,1.47-2.96,1.8-1.01.46-1.9.76-2.66.89-.96.13-1.68-.09-2.17-.66-.48-.57-.67-1.28-.57-2.12.1-.84.34-1.69.72-2.53.38-.84.82-1.72,1.33-2.63.51-.91.86-1.57,1.06-1.99.05-1.56.68-2.13,1.9-1.71.3.13.54.32.72.57ZM137.6,26.79c-.61.36-1.24.6-1.9.73-.1,0-.2.01-.3.03-.1.02-.2.03-.3.03-.05.25-.08.4-.08.44-.1,0-.23-.18-.38-.54-.15-.36-.29-.72-.42-1.08-.13-.36-.14-.56-.04-.6.1.17.19.31.27.41.08.11.14.18.19.22,0,.04.27-.08.8-.38.53-.3,1.04-.52,1.52-.67.48-.15.9-.03,1.25.35.2.34,0,.69-.61,1.04Z"/>
    <path class="cls-1" d="M146.19,30.27c.2-.1.39-.15.57-.13.18.02.34.06.49.13.15.06.28.16.38.28.1.13.15.25.15.38-.2,1.52-1.14,3.33-2.81,5.44.25-.29.62-.72,1.1-1.27.48-.55.89-1,1.22-1.36.33-.36.73-.78,1.22-1.27.48-.48.91-.89,1.29-1.2.38-.32.81-.63,1.29-.95.48-.32.92-.54,1.33-.66.4-.13.84-.19,1.29-.19s.91.11,1.37.32c-1.32.3-2.96,1.4-4.94,3.32-1.98,1.92-3.76,3.76-5.36,5.51-1.6,1.75-2.59,2.63-3,2.63-.15-.38-.23-.74-.23-1.08s.32-1.23.95-2.69c.63-1.46,1.15-2.6,1.56-3.42.4-.82.96-1.93,1.67-3.32.1-.21.25-.37.46-.47Z"/>
    <path class="cls-1" d="M158.38,31.06c.18.25.19.51.04.76-.05.13-.25.28-.61.44-.35.17-.58.3-.68.38-.61.51-1.23,1.72-1.86,3.64-.63,1.92-.77,3.3-.42,4.15h.23c.66-.04,1.92-.47,3.8-1.3,1.87-.82,3.58-1.58,5.13-2.28,1.54-.7,2.39-.98,2.54-.85l-1.67,1.08c-1.17.72-2.46,1.51-3.87,2.37-1.42.87-2.41,1.47-2.96,1.8-1.01.46-1.9.76-2.66.89-.96.13-1.68-.09-2.17-.66-.48-.57-.67-1.28-.57-2.12.1-.84.34-1.69.72-2.53.38-.84.82-1.72,1.33-2.63.51-.91.86-1.57,1.06-1.99.05-1.56.68-2.13,1.9-1.71.3.13.54.32.72.57ZM159.93,26.79c-.61.36-1.24.6-1.9.73-.1,0-.2.01-.3.03-.1.02-.2.03-.3.03-.05.25-.08.4-.08.44-.1,0-.23-.18-.38-.54-.15-.36-.29-.72-.42-1.08-.13-.36-.14-.56-.04-.6.1.17.19.31.27.41.08.11.14.18.19.22,0,.04.27-.08.8-.38.53-.3,1.04-.52,1.52-.67.48-.15.9-.03,1.25.35.2.34,0,.69-.61,1.04Z"/>
    <path class="cls-1" d="M170.87,38.53c-.86-.25-1.51-.45-1.94-.6-.43-.15-.95-.37-1.56-.67-.61-.29-1.03-.63-1.25-1.01-.23-.38-.29-.82-.19-1.33.05-.21.15-.44.3-.7.15-.25.32-.47.49-.66.18-.19.43-.39.76-.6.33-.21.61-.38.84-.51.23-.13.54-.28.95-.47.4-.19.7-.33.87-.41.18-.08.47-.2.87-.35.4-.15.66-.24.76-.28,1.06-.67,1.85-1.12,2.36-1.33.51-.17,1-.22,1.48-.16.48.06.8.24.95.54.15.3.09.61-.19.95-.28.34-.67.59-1.18.76-.2.13-.63.19-1.29.19s-1.11.02-1.37.06c-.35.09-1.04.38-2.05.89-2.63,1.31-3.47,2.3-2.51,2.98.61.34,1.63.69,3.08,1.04,1.44.36,2.42.64,2.92.85,1.27-.38,2.44-.71,3.53-.98,1.09-.27,1.91-.45,2.47-.54.56-.08.86-.1.91-.06,0,.04-.08.11-.23.19-.15.09-.41.21-.76.38-.35.17-.72.33-1.1.47-.38.15-.92.35-1.63.6-.71.25-1.34.51-1.9.76.1.04.18.11.23.19,1.01,1.14.13,2.53-2.66,4.18-.41.21-.9.44-1.48.7-.58.25-1.25.48-2.01.7-.76.21-1.51.3-2.24.25-.73-.04-1.33-.25-1.79-.63-.3-.21-.46-.51-.46-.89s.1-.7.3-.95c.91-1.14,2.96-2.28,6.15-3.42-.1-.04-.25-.08-.46-.13ZM173.53,39.42c-.05-.04-.13-.08-.23-.13-.05.04-.1.06-.15.06-2.84,1.22-4.76,2.24-5.77,3.04-.05.04-.18.17-.38.38.15.04.28.06.38.06,2.53-.04,4.68-1.06,6.46-3.04.05-.04.08-.08.08-.13-.05-.04-.18-.13-.38-.25Z"/>
    <path class="cls-1" d="M184.28,31.06c.18.25.19.51.04.76-.05.13-.25.28-.61.44-.35.17-.58.3-.68.38-.61.51-1.23,1.72-1.86,3.64-.63,1.92-.77,3.3-.42,4.15h.23c.66-.04,1.92-.47,3.8-1.3,1.87-.82,3.58-1.58,5.13-2.28,1.54-.7,2.39-.98,2.54-.85l-1.67,1.08c-1.17.72-2.46,1.51-3.87,2.37-1.42.87-2.41,1.47-2.96,1.8-1.01.46-1.9.76-2.66.89-.96.13-1.68-.09-2.17-.66-.48-.57-.67-1.28-.57-2.12.1-.84.34-1.69.72-2.53.38-.84.82-1.72,1.33-2.63.51-.91.86-1.57,1.06-1.99.05-1.56.68-2.13,1.9-1.71.3.13.54.32.72.57ZM185.84,26.79c-.61.36-1.24.6-1.9.73-.1,0-.2.01-.3.03-.1.02-.2.03-.3.03-.05.25-.08.4-.08.44-.1,0-.23-.18-.38-.54-.15-.36-.29-.72-.42-1.08-.13-.36-.14-.56-.04-.6.1.17.19.31.27.41.08.11.14.18.19.22,0,.04.27-.08.8-.38.53-.3,1.04-.52,1.52-.67.48-.15.9-.03,1.25.35.2.34,0,.69-.61,1.04Z"/>
    <path class="cls-1" d="M201.03,35.18c1.11-1.48,2.74-3.08,4.86-4.81.61-.51,1.11-.78,1.52-.82.4-.04.68.09.84.41.15.32.18.64.08.98-.25.55-.87,1.72-1.86,3.51-.99,1.79-1.58,3.26-1.79,4.4-.1.68.02,1.12.38,1.33.35.21.86.19,1.52-.06.76-.25,1.53-.61,2.32-1.08.78-.46,1.62-1,2.51-1.61.89-.61,1.51-1.02,1.86-1.23.51-.29.78-.41.84-.35.05.06-.13.28-.53.66-1.01,1.01-2.18,1.98-3.49,2.91-1.77,1.27-3.24,1.96-4.41,2.09-.96.13-1.65-.09-2.05-.66-.41-.57-.56-1.28-.46-2.12.1-1.22.68-2.91,1.75-5.06-.86.84-1.57,1.65-2.13,2.41-.66.89-1.27,1.67-1.82,2.34-1.22,1.6-2.1,2.62-2.66,3.04-.61.59-1.18.7-1.71.32-.53-.38-.72-.89-.57-1.52.2-.72.47-1.48.8-2.28.33-.8.68-1.63,1.06-2.5.38-.86.67-1.61.87-2.25.3-.8.48-1.29.53-1.46-.05.04-.2.13-.46.25-.3.17-.6.36-.87.57-.28.21-.56.45-.84.73-.28.28-.52.51-.72.7-.2.19-.46.47-.76.85-.3.38-.52.63-.65.76-.13.13-.37.4-.72.82-.36.42-.56.68-.61.76-.05.09-.2.31-.46.66-.25.36-.48.63-.68.82-.2.19-.46.33-.76.41-.15.08-.35.07-.61-.03-.25-.1-.44-.23-.57-.38-.13-.15-.16-.24-.11-.28,0-.17.05-.34.15-.51.25-.67.61-1.5,1.06-2.47.46-.97.78-1.77.99-2.41.4-1.56.89-2.57,1.44-3.04v-.13c.3.09.63.13.99.13.3.17.61.3.91.38-.05.09-.06.24-.04.47.02.23.01.41-.04.54-.05.47-.18.91-.38,1.33.71-.72,1.44-1.33,2.2-1.84.76-.51,1.49-.78,2.2-.82,1.06,0,1.39.82.99,2.47-.15.59-.34,1.19-.57,1.8-.23.61-.52,1.32-.87,2.12-.35.8-.61,1.39-.76,1.77.05-.04.81-1.05,2.28-3.04ZM191.99,38.28l-.08.06.08-.06ZM199.97,31.57h-.15.15ZM206.5,30.43c-.05,0-.05.02,0,.06v-.06Z"/>
    <path class="cls-1" d="M219.42,30.43c-.05-.04-.18,0-.38.13-.76.47-1.65,1.52-2.66,3.17-.56.89-1.24,2.31-2.05,4.27-.81,1.96-.81,2.94,0,2.94.25,0,.51-.02.76-.06.25-.04.51-.12.76-.22.25-.1.46-.2.61-.28.15-.08.38-.2.68-.35.3-.15.48-.24.53-.28,2.18-1.18,4.43-2.22,6.76-3.1,1.82-.72,2.78-.99,2.89-.82.1.13-.41.53-1.52,1.2-1.11.68-2.52,1.48-4.22,2.41-1.7.93-2.65,1.46-2.85,1.58-.86.51-1.65.91-2.36,1.2-1.11.42-2.08.53-2.89.32-2.13-.55-2.33-2.64-.61-6.27,1.67-3.38,3.44-5.59,5.32-6.65.51-.29,1.03-.38,1.56-.25.53.13.87.4,1.03.82.46,1.06.68,1.79.68,2.22-.1.55-.44.91-1.03,1.08-.58.17-1.08.02-1.48-.44-.2-.38-.28-.65-.23-.82.05-.17.19-.4.42-.7.23-.29.37-.53.42-.7l-.15-.38Z"/>
    <path class="cls-1" d="M230.39,31.06c.18.25.19.51.04.76-.05.13-.25.28-.61.44-.35.17-.58.3-.68.38-.61.51-1.23,1.72-1.86,3.64-.63,1.92-.77,3.3-.42,4.15h.23c.66-.04,1.92-.47,3.8-1.3,1.87-.82,3.58-1.58,5.13-2.28,1.54-.7,2.39-.98,2.54-.85l-1.67,1.08c-1.17.72-2.46,1.51-3.87,2.37-1.42.87-2.41,1.47-2.96,1.8-1.01.46-1.9.76-2.66.89-.96.13-1.68-.09-2.17-.66-.48-.57-.67-1.28-.57-2.12.1-.84.34-1.69.72-2.53.38-.84.82-1.72,1.33-2.63.51-.91.86-1.57,1.06-1.99.05-1.56.68-2.13,1.9-1.71.3.13.54.32.72.57ZM231.95,26.79c-.61.36-1.24.6-1.9.73-.1,0-.2.01-.3.03-.1.02-.2.03-.3.03-.05.25-.08.4-.08.44-.1,0-.23-.18-.38-.54-.15-.36-.29-.72-.42-1.08-.13-.36-.14-.56-.04-.6.1.17.19.31.27.41.08.11.14.18.19.22,0,.04.27-.08.8-.38.53-.3,1.04-.52,1.52-.67.48-.15.9-.03,1.25.35.2.34,0,.69-.61,1.04Z"/>
    <path class="cls-1" d="M237.12,47.71c1.27-.76,3.11-2.32,5.55-4.68.25-.25.71-.71,1.37-1.36.66-.65,1.32-1.31,1.98-1.96.66-.65,1.32-1.31,1.98-1.96.66-.65,1.2-1.18,1.63-1.58.43-.4.67-.58.72-.54.2.09-.96,1.63-3.49,4.62-3.14,3.67-5.75,6.31-7.82,7.91-.05.04-.18.15-.38.32-.2.17-.33.27-.38.32-.05.04-.18.13-.38.25-.2.13-.37.21-.49.25-.13.04-.29.1-.49.19-.2.08-.39.14-.57.16-.18.02-.37.03-.57.03-.3,0-.61-.06-.91-.19-.51-.25-.8-.76-.87-1.52s-.06-1.35.04-1.77c.1-.42.28-1.06.53-1.9.71-2.53,2.1-5.95,4.18-10.26,3.95-8.31,8.08-15.85,12.38-22.6.56-.89.94-1.41,1.14-1.58.2.04.53.06.99.06.3.25.56.44.76.57,0,.17-.08.42-.23.76-.66,1.44-1.75,3.47-3.27,6.11-1.52,2.64-2.33,4.06-2.43,4.27-.81,2.07-1.39,3.4-1.75,3.99-.41.72-.85,1.31-1.33,1.77-.48.47-.9.72-1.25.76-2.08,4.05-3.98,8.04-5.7,11.97-1.16,2.79-1.9,4.9-2.2,6.33,0,.08-.01.38-.04.89-.02.51-.01.82.04.95.15.04.58-.15,1.29-.57Z"/>
    <path class="cls-1" d="M257.02,30.05c-1.57.89-3.04,2.26-4.41,4.12-1.77,2.45-2.08,4.22-.91,5.32,1.42.51,3.39.23,5.93-.82.3-.13.96-.44,1.98-.95,1.01-.51,1.92-.96,2.73-1.36.81-.4,1.27-.56,1.37-.48.15.17-.58.82-2.2,1.96-4.2,3.08-7.82,4.07-10.86,2.98-1.27-1.01-1.77-2.28-1.52-3.8.2-1.14.63-2.17,1.29-3.1.66-.93,1.49-1.88,2.51-2.85,1.52-1.39,2.89-2.3,4.1-2.72.56-.17,1.09-.15,1.6.06.51.21.76.55.76,1.01,0,.17-.03.34-.08.51-.3,1.31-1.42,2.89-3.34,4.75-.51.8-.99,1.35-1.44,1.65-.46.25-.9.37-1.33.35-.43-.02-.75-.18-.95-.47-.15-.25-.18-.55-.08-.89.1-.34.3-.61.61-.82.25-.13.59-.22,1.03-.28.43-.06.77-.16,1.03-.28.25-.13.61-.46,1.06-1.01.91-1.1,1.49-2.15,1.75-3.17-.35.17-.56.28-.61.32Z"/>
    <path class="cls-1" d="M265.6,30.27c.2-.1.39-.15.57-.13.18.02.34.06.49.13.15.06.28.16.38.28.1.13.15.25.15.38-.2,1.52-1.14,3.33-2.81,5.44.25-.29.62-.72,1.1-1.27.48-.55.89-1,1.22-1.36.33-.36.73-.78,1.22-1.27.48-.48.91-.89,1.29-1.2.38-.32.81-.63,1.29-.95.48-.32.92-.54,1.33-.66.4-.13.84-.19,1.29-.19s.91.11,1.37.32c-1.32.3-2.96,1.4-4.94,3.32-1.97,1.92-3.76,3.76-5.36,5.51-1.6,1.75-2.59,2.63-3,2.63-.15-.38-.23-.74-.23-1.08s.32-1.23.95-2.69c.63-1.46,1.15-2.6,1.56-3.42.4-.82.96-1.93,1.67-3.32.1-.21.25-.37.46-.47Z"/>
    <path class="cls-1" d="M277.79,31.06c.18.25.19.51.04.76-.05.13-.25.28-.61.44-.36.17-.58.3-.68.38-.61.51-1.23,1.72-1.86,3.64-.63,1.92-.77,3.3-.42,4.15h.23c.66-.04,1.92-.47,3.8-1.3,1.87-.82,3.58-1.58,5.13-2.28,1.54-.7,2.39-.98,2.54-.85l-1.67,1.08c-1.17.72-2.46,1.51-3.87,2.37-1.42.87-2.41,1.47-2.96,1.8-1.01.46-1.9.76-2.66.89-.96.13-1.68-.09-2.17-.66-.48-.57-.67-1.28-.57-2.12.1-.84.34-1.69.72-2.53.38-.84.82-1.72,1.33-2.63.51-.91.86-1.57,1.06-1.99.05-1.56.68-2.13,1.9-1.71.3.13.54.32.72.57ZM279.35,26.79c-.61.36-1.24.6-1.9.73-.1,0-.2.01-.3.03-.1.02-.2.03-.3.03-.05.25-.08.4-.08.44-.1,0-.23-.18-.38-.54-.15-.36-.29-.72-.42-1.08-.13-.36-.14-.56-.04-.6.1.17.19.31.27.41.08.11.14.18.19.22,0,.04.27-.08.8-.38.53-.3,1.04-.52,1.52-.67.48-.15.9-.03,1.25.35.2.34,0,.69-.61,1.04Z"/>
    <path class="cls-1" d="M288.85,33.72c-.41.25-.68.47-.84.63-.15.17-.41.57-.76,1.2-.51.84-.79,1.39-.84,1.65,0-.04.18-.17.53-.38.86-.59,2.01-1.51,3.46-2.75,1.44-1.24,2.34-1.99,2.7-2.25,1.52-1.27,2.68-2.09,3.49-2.47.56-.25,1.09-.29,1.6-.13.51.17.81.51.91,1.01.15,1.01-.1,2.45-.76,4.31-.66,1.86-.89,3.36-.68,4.49.1.34.23.6.38.79.15.19.37.3.65.32.28.02.54.03.8.03s.57-.06.95-.19c.38-.13.66-.23.84-.32.18-.08.65-.3,1.41-.63.41-.17,1.19-.55,2.36-1.14,1.16-.59,2.19-1.11,3.08-1.55.89-.44,1.35-.62,1.41-.54.15.13-.58.76-2.2,1.9-1.62,1.14-2.91,1.94-3.87,2.41-2.08,1.1-3.77,1.58-5.09,1.46-.61-.09-1.13-.25-1.56-.51-.43-.25-.72-.62-.87-1.11-.15-.48-.25-.94-.3-1.36-.05-.42-.03-.97.08-1.65.1-.67.2-1.21.3-1.61.1-.4.24-.93.42-1.58.18-.65.29-1.07.34-1.23,0-.08.02-.22.08-.41.05-.19.1-.37.15-.54.05-.17.08-.32.08-.44-.15.09-.25.15-.3.19-1.11.68-2.62,1.77-4.52,3.29-1.9,1.52-3.33,2.6-4.29,3.23-.86.59-1.57.84-2.13.76-.35-.08-.62-.22-.8-.41-.18-.19-.24-.42-.19-.7.05-.27.13-.57.23-.89.1-.32.25-.63.46-.95.2-.32.38-.59.53-.82.15-.23.3-.45.46-.66.15-.21.23-.34.23-.38.4-1.1.73-1.84.99-2.22.3-.42.67-.73,1.1-.92.43-.19.81-.2,1.14-.03.33.17.51.45.53.85.02.4-.11.81-.42,1.23-.15.25-.56.59-1.22,1.01ZM297.05,30.43v.06-.06Z"/>
    <path class="cls-1" d="M362.31,15.81c-.3.59-.62.87-.95.82-.33-.04-.57-.36-.72-.95-.15-.46-.32-1.32-.49-2.56-.18-1.24-.43-2.22-.76-2.91-.33-.7-.9-1.21-1.71-1.55-1.17-.46-2.81-.46-4.94,0-4.05.84-8.38,3.1-12.99,6.77-3.7,2.91-6.91,6.27-9.65,10.07-2.73,3.8-4.71,7.89-5.93,12.28-.36,1.14-.62,2.27-.8,3.39-.18,1.12-.3,2.3-.38,3.55-.08,1.24.02,2.35.3,3.32.28.97.68,1.84,1.22,2.6.53.76,1.35,1.29,2.47,1.58,1.11.3,2.43.32,3.95.06,2.74-.42,5.8-1.67,9.19-3.74,3.09-1.81,5.91-4,8.47-6.55,2.56-2.55,4.6-5.22,6.12-8.01-6.79.63-11.62,1.31-14.51,2.03-.91.46-1.49.72-1.75.76-.56.13-1.03.04-1.41-.25-.38-.3-.51-.65-.38-1.08.13-.42.47-.72,1.03-.89.25-.04.62-.01,1.1.09.48.11.8.18.95.22.1,0,.35-.04.76-.13.41-.08,1.03-.22,1.86-.41.84-.19,1.63-.37,2.39-.54,3.29-.67,6.43-1.16,9.42-1.46,4.71-.46,9.14-.57,13.29-.32,3.44.21,5.14.46,5.09.76,0,.17-1.7.32-5.09.44-4.41.17-8.48.42-12.23.76-1.22,3.55-3.82,7.15-7.82,10.83-4.1,3.84-8.41,6.56-12.91,8.17-2.28.8-4.36,1.16-6.23,1.08-2.08-.13-3.71-.74-4.9-1.84-1.19-1.1-1.9-2.51-2.13-4.24-.23-1.73-.27-3.44-.11-5.13.15-1.69.48-3.42.99-5.19,1.26-4.6,3.34-8.87,6.23-12.82,2.89-3.95,6.31-7.42,10.26-10.41,4.81-3.71,9.42-6.04,13.83-6.96,2.99-.59,5.48-.35,7.48.73,2,1.08,2.98,2.8,2.93,5.16,0,.93-.18,1.75-.53,2.47Z"/>
    <path class="cls-1" d="M375.3,30.05c-1.57.89-3.04,2.26-4.41,4.12-1.77,2.45-2.08,4.22-.91,5.32,1.42.51,3.39.23,5.93-.82.3-.13.96-.44,1.97-.95,1.01-.51,1.92-.96,2.74-1.36.81-.4,1.26-.56,1.37-.48.15.17-.58.82-2.2,1.96-4.2,3.08-7.83,4.07-10.86,2.98-1.26-1.01-1.77-2.28-1.52-3.8.2-1.14.63-2.17,1.29-3.1.66-.93,1.49-1.88,2.51-2.85,1.52-1.39,2.89-2.3,4.1-2.72.56-.17,1.09-.15,1.6.06.51.21.76.55.76,1.01,0,.17-.03.34-.08.51-.3,1.31-1.42,2.89-3.34,4.75-.51.8-.99,1.35-1.44,1.65-.46.25-.9.37-1.33.35-.43-.02-.75-.18-.95-.47-.15-.25-.18-.55-.08-.89.1-.34.3-.61.61-.82.25-.13.59-.22,1.03-.28.43-.06.77-.16,1.03-.28.25-.13.61-.46,1.06-1.01.91-1.1,1.49-2.15,1.75-3.17-.36.17-.56.28-.61.32Z"/>
    <path class="cls-1" d="M380.46,47.71c1.27-.76,3.12-2.32,5.55-4.68.25-.25.71-.71,1.37-1.36.66-.65,1.32-1.31,1.97-1.96.66-.65,1.32-1.31,1.98-1.96.66-.65,1.2-1.18,1.63-1.58.43-.4.67-.58.72-.54.2.09-.96,1.63-3.49,4.62-3.14,3.67-5.75,6.31-7.82,7.91-.05.04-.18.15-.38.32-.2.17-.33.27-.38.32-.05.04-.18.13-.38.25-.2.13-.37.21-.49.25-.13.04-.29.1-.49.19-.2.08-.39.14-.57.16-.18.02-.37.03-.57.03-.3,0-.61-.06-.91-.19-.51-.25-.8-.76-.87-1.52-.08-.76-.06-1.35.04-1.77.1-.42.28-1.06.53-1.9.71-2.53,2.1-5.95,4.18-10.26,3.95-8.31,8.08-15.85,12.38-22.6.56-.89.94-1.41,1.14-1.58.2.04.53.06.99.06.3.25.56.44.76.57,0,.17-.08.42-.23.76-.66,1.44-1.75,3.47-3.27,6.11-1.52,2.64-2.33,4.06-2.43,4.27-.81,2.07-1.39,3.4-1.75,3.99-.41.72-.85,1.31-1.33,1.77-.48.47-.9.72-1.25.76-2.08,4.05-3.98,8.04-5.7,11.97-1.16,2.79-1.9,4.9-2.2,6.33,0,.08-.01.38-.04.89-.02.51-.01.82.04.95.15.04.58-.15,1.29-.57Z"/>
    <path class="cls-1" d="M397.06,31.06c.18.25.19.51.04.76-.05.13-.25.28-.61.44-.36.17-.58.3-.68.38-.61.51-1.23,1.72-1.86,3.64-.63,1.92-.77,3.3-.42,4.15h.23c.66-.04,1.92-.47,3.8-1.3,1.87-.82,3.58-1.58,5.13-2.28,1.54-.7,2.39-.98,2.55-.85l-1.67,1.08c-1.16.72-2.46,1.51-3.87,2.37-1.42.87-2.41,1.47-2.96,1.8-1.01.46-1.9.76-2.66.89-.96.13-1.68-.09-2.16-.66-.48-.57-.67-1.28-.57-2.12.1-.84.34-1.69.72-2.53.38-.84.82-1.72,1.33-2.63.51-.91.86-1.57,1.06-1.99.05-1.56.68-2.13,1.9-1.71.3.13.54.32.72.57ZM398.62,26.79c-.61.36-1.24.6-1.9.73-.1,0-.2.01-.3.03-.1.02-.2.03-.3.03-.05.25-.08.4-.08.44-.1,0-.23-.18-.38-.54-.15-.36-.29-.72-.42-1.08-.13-.36-.14-.56-.04-.6.1.17.19.31.27.41.08.11.14.18.19.22,0,.04.27-.08.8-.38.53-.3,1.04-.52,1.52-.67.48-.15.9-.03,1.25.35.2.34,0,.69-.61,1.04Z"/>
    <path class="cls-1" d="M409.56,38.53c-.86-.25-1.51-.45-1.94-.6-.43-.15-.95-.37-1.56-.67-.61-.29-1.03-.63-1.25-1.01-.23-.38-.29-.82-.19-1.33.05-.21.15-.44.3-.7.15-.25.32-.47.49-.66s.43-.39.76-.6c.33-.21.61-.38.84-.51.23-.13.54-.28.95-.47.4-.19.7-.33.87-.41.18-.08.47-.2.87-.35.4-.15.66-.24.76-.28,1.06-.67,1.85-1.12,2.36-1.33.51-.17,1-.22,1.48-.16.48.06.8.24.95.54.15.3.09.61-.19.95-.28.34-.67.59-1.18.76-.2.13-.63.19-1.29.19s-1.11.02-1.37.06c-.36.09-1.04.38-2.05.89-2.63,1.31-3.47,2.3-2.51,2.98.61.34,1.63.69,3.08,1.04,1.44.36,2.42.64,2.93.85,1.27-.38,2.44-.71,3.53-.98,1.09-.27,1.91-.45,2.47-.54.56-.08.86-.1.91-.06,0,.04-.08.11-.23.19-.15.09-.41.21-.76.38-.36.17-.72.33-1.1.47-.38.15-.92.35-1.63.6-.71.25-1.34.51-1.9.76.1.04.18.11.23.19,1.01,1.14.13,2.53-2.66,4.18-.41.21-.9.44-1.48.7-.58.25-1.25.48-2.01.7-.76.21-1.51.3-2.24.25-.73-.04-1.33-.25-1.78-.63-.3-.21-.46-.51-.46-.89s.1-.7.3-.95c.91-1.14,2.96-2.28,6.15-3.42-.1-.04-.25-.08-.46-.13ZM412.22,39.42c-.05-.04-.13-.08-.23-.13-.05.04-.1.06-.15.06-2.84,1.22-4.76,2.24-5.77,3.04-.05.04-.18.17-.38.38.15.04.28.06.38.06,2.53-.04,4.68-1.06,6.46-3.04.05-.04.08-.08.08-.13-.05-.04-.18-.13-.38-.25Z"/>
    <path class="cls-1" d="M431.32,17.17c-.28.27-.47.5-.57.66-.1.13-.23.35-.38.66-.15.32-.32.7-.49,1.14s-.29.73-.34.85c7.45-.34,15.47-.38,24.08-.13,2.33.09,4.15.18,5.47.29,1.32.11,1.97.22,1.97.35-.05.21-2.63.4-7.75.57-1.97.09-5.86.18-11.66.28-5.8.11-10.09.2-12.88.28-1.17,2.41-2.76,5.36-4.79,8.86-2.53,4.26-3.95,6.73-4.25,7.41-.66,1.35-.94,2.26-.84,2.72h.15c.61,0,1.75-.46,3.42-1.39,1.67-.93,3.2-1.8,4.6-2.63,1.39-.82,2.14-1.19,2.24-1.11.15.17-.72.95-2.62,2.34-1.9,1.39-3.36,2.38-4.37,2.98-1.87,1.05-3.29,1.48-4.25,1.27-1.37-.34-1.42-1.86-.15-4.56.96-2.11,2.58-4.99,4.86-8.64,2.28-3.65,3.72-6.05,4.33-7.19-7.24.25-12.23.55-14.97.89-1.52.38-2.48.59-2.89.63-.61.09-1.13.03-1.56-.16-.43-.19-.63-.43-.61-.73.03-.29.27-.58.72-.85.46-.27.99-.45,1.6-.54.41-.04.9.01,1.48.16.58.15,1,.24,1.25.29.15,0,.54-.03,1.18-.09.63-.06,1.61-.16,2.93-.29,1.32-.13,2.53-.23,3.65-.32,2.74-.25,5.42-.44,8.05-.57.71-1.31,1.16-2.28,1.37-2.91,0-.04.01-.18.04-.41.03-.23.05-.41.08-.54.03-.13.05-.29.08-.51.03-.21.05-.38.08-.51.03-.13.08-.27.15-.44.08-.17.16-.31.27-.41.1-.1.2-.21.3-.32.1-.1.23-.19.38-.25.15-.06.33-.1.53-.1.61-.04.96.23,1.06.82.1.59-.05,1.12-.46,1.58-.05.09-.22.26-.49.54Z"/>
    <path class="cls-1" d="M431.93,31.06c.18.25.19.51.04.76-.05.13-.25.28-.61.44-.36.17-.58.3-.68.38-.61.51-1.23,1.72-1.86,3.64-.63,1.92-.77,3.3-.42,4.15h.23c.66-.04,1.92-.47,3.8-1.3,1.87-.82,3.58-1.58,5.13-2.28,1.54-.7,2.39-.98,2.54-.85l-1.67,1.08c-1.17.72-2.46,1.51-3.87,2.37-1.42.87-2.41,1.47-2.96,1.8-1.01.46-1.9.76-2.66.89-.96.13-1.68-.09-2.17-.66-.48-.57-.67-1.28-.57-2.12.1-.84.34-1.69.72-2.53.38-.84.82-1.72,1.33-2.63.51-.91.86-1.57,1.06-1.99.05-1.56.68-2.13,1.9-1.71.3.13.54.32.72.57ZM433.49,26.79c-.61.36-1.24.6-1.9.73-.1,0-.2.01-.3.03-.1.02-.2.03-.3.03-.05.25-.08.4-.08.44-.1,0-.23-.18-.38-.54-.15-.36-.29-.72-.42-1.08-.13-.36-.14-.56-.04-.6.1.17.19.31.27.41.08.11.14.18.19.22,0,.04.27-.08.8-.38.53-.3,1.04-.52,1.52-.67.48-.15.9-.03,1.25.35.2.34,0,.69-.61,1.04Z"/>
    <path class="cls-1" d="M440.55,36.95v.19c.1.25.88.15,2.35-.32,1.98-.63,3.77-1.39,5.39-2.28.3-.46.63-.78.99-.95.1.17.23.32.38.44.1.09.35.42.76,1.01-.2.13-.43.27-.68.44-.05.04-.1.12-.15.22-.05.11-.08.18-.08.22-.76,1.35-1.6,2.93-2.51,4.75,1.67-1.18,3.32-2.22,4.94-3.1,2.33-1.27,3.54-1.81,3.65-1.65.05,0,.04.04-.04.13-.08.09-.22.19-.42.32-.2.13-.42.26-.65.41-.23.15-.54.35-.95.6-.41.25-.79.51-1.14.76-2.33,1.56-4.51,3.23-6.53,5-.1.13-.47.86-1.1,2.22-.63,1.35-1.03,2.18-1.18,2.5-.15.32-.49,1.03-1.03,2.15-.53,1.12-.94,1.93-1.22,2.44-.28.51-.66,1.19-1.14,2.06-.48.86-.94,1.65-1.37,2.34-.43.7-.87,1.36-1.33,1.99-.05.08-.14.21-.27.38-.13.17-.23.32-.3.44-.08.13-.19.28-.34.47s-.28.35-.38.47c-.1.13-.24.26-.42.41-.18.15-.34.25-.49.32-.15.06-.32.13-.49.19-.18.06-.35.08-.53.06-.18-.02-.37-.07-.57-.16-1.42-.72-1.37-2.7.15-5.95.05-.09.1-.15.15-.19,1.93-4.14,5.12-8.12,9.57-11.97,1.37-2.7,2.53-4.9,3.49-6.58-.3.09-.86.3-1.67.63-1.57.59-2.84.95-3.8,1.08-.76.13-1.41.03-1.94-.28-.53-.32-.75-.77-.65-1.36.3-2.24,1.67-4.26,4.1-6.08.61-.51,1.04-.84,1.29-1.01.25-.17.67-.39,1.25-.66.58-.27,1.18-.45,1.78-.54,1.01-.17,1.9-.04,2.66.38.76.42,1.24.99,1.44,1.71.2.55.23,1.14.08,1.77-.15.63-.43.95-.84.95-.25,0-.47-.12-.65-.35-.18-.23-.37-.54-.57-.92-.2-.38-.33-.61-.38-.7-.41-.46-.94-.74-1.6-.82-.66-.08-1.3-.02-1.94.19-.63.21-1.18.49-1.63.82-2.13,1.6-3.29,3.4-3.49,5.38ZM436.75,56.45c1.37-2.28,3.04-5.38,5.01-9.31-2.73,2.91-4.73,5.8-6,8.67-.66,1.48-.99,2.68-.99,3.61.3-.34.96-1.33,1.97-2.98Z"/>
    <path class="cls-1" d="M458.82,31.06c.18.25.19.51.04.76-.05.13-.25.28-.61.44-.36.17-.58.3-.68.38-.61.51-1.23,1.72-1.86,3.64-.63,1.92-.77,3.3-.42,4.15h.23c.66-.04,1.92-.47,3.8-1.3,1.87-.82,3.58-1.58,5.13-2.28,1.54-.7,2.39-.98,2.54-.85l-1.67,1.08c-1.17.72-2.46,1.51-3.87,2.37-1.42.87-2.41,1.47-2.96,1.8-1.01.46-1.9.76-2.66.89-.96.13-1.68-.09-2.17-.66-.48-.57-.67-1.28-.57-2.12.1-.84.34-1.69.72-2.53.38-.84.82-1.72,1.33-2.63.51-.91.86-1.57,1.06-1.99.05-1.56.68-2.13,1.9-1.71.3.13.54.32.72.57ZM460.38,26.79c-.61.36-1.24.6-1.9.73-.1,0-.2.01-.3.03-.1.02-.2.03-.3.03-.05.25-.08.4-.08.44-.1,0-.23-.18-.38-.54-.15-.36-.29-.72-.42-1.08-.13-.36-.14-.56-.04-.6.1.17.19.31.27.41.08.11.14.18.19.22,0,.04.27-.08.8-.38.53-.3,1.04-.52,1.52-.67.48-.15.9-.03,1.25.35.2.34,0,.69-.61,1.04Z"/>
    <path class="cls-1" d="M491.07,17.26c-1.42,1.52-2.46,2.69-3.11,3.51-.66.82-1.6,2.16-2.81,4.02-2.08,3.17-3.47,5.7-4.18,7.6-.41,1.18-.56,2.09-.46,2.72.2,1.14,1.62,1.25,4.25.32,2.08-.72,4.84-2.09,8.28-4.12,4.86-2.87,11.57-7.32,20.13-13.36,6.68-4.77,10.18-7.24,10.48-7.41.05-.04.18-.14.38-.29.2-.15.37-.25.49-.32s.29-.14.49-.22c.2-.08.4-.13.61-.13s.4.04.61.13c.25.21.39.43.42.66.02.23-.05.47-.23.73-.18.25-.34.47-.49.66-.15.19-.38.41-.68.66s-.48.4-.53.44c-.96.93-2.44,2.3-4.44,4.12-2,1.82-3.76,3.46-5.28,4.94-1.52,1.48-2.89,2.91-4.1,4.31-7.4,8.53-15.37,16.97-23.93,25.32,2.63-2.07,5.53-4.39,8.7-6.96,3.16-2.57,5.28-4.28,6.34-5.13,3.49-2.7,6.53-4.66,9.12-5.89.96-.46,1.44-.67,1.44-.63s-.43.34-1.29.89c-2.68,1.69-5.55,3.78-8.58,6.27l-9.12,7.72c-2.28,1.9-3.7,3.06-4.25,3.48-4.66,3.8-7.57,6.1-8.74,6.9-.51.34-.91.51-1.22.51-.15,0-.33-.06-.53-.19-.15-.08-.25-.18-.3-.28-.05-.11-.08-.21-.08-.32s.01-.2.04-.28c.02-.08.09-.19.19-.32.1-.13.18-.21.23-.25.05-.04.2-.19.46-.44,10.94-10.55,20.92-21,29.93-31.34,1.62-1.94,3.57-3.97,5.85-6.08.1-.08.29-.25.57-.51.28-.25.68-.62,1.22-1.11.53-.48,1-.92,1.41-1.3-8.1,5.66-12.79,8.91-14.05,9.75-2.58,1.69-4.47,2.91-5.66,3.67-1.19.76-2.9,1.77-5.13,3.04-2.23,1.27-4.31,2.32-6.23,3.17-2.18.93-3.9,1.41-5.17,1.46-.86.04-1.55-.1-2.05-.44-.51-.34-.81-.8-.91-1.39-.1-.59-.11-1.17-.04-1.74.08-.57.24-1.15.49-1.74.1-.42.25-.84.46-1.27.2-.42.4-.82.61-1.2.2-.38.44-.81.72-1.3.28-.48.51-.89.68-1.2.18-.32.43-.74.76-1.27.33-.53.57-.92.72-1.17.15-.25.42-.64.8-1.17.38-.53.62-.86.72-1.01.1-.15.34-.48.72-1.01.38-.53.57-.81.57-.85,1.01-1.6,1.95-3.04,2.81-4.3,1.11-1.6,3.01-3.55,5.7-5.82,1.67-1.43,2.89-2.36,3.65-2.79l.08.06c.15.09.23.11.23.06l-.15-.19c-.05-.13,0-.19.15-.19.3-.08.46,0,.46.25s.01.44.04.57c.02.13-.03.32-.15.57-.13.25-.23.42-.3.51-.08.09-.2.24-.38.47-.18.23-.29.39-.34.47-1.22,1.56-3.22,3.59-6,6.08-.56.46-.91.76-1.06.89ZM524.72,10.17v.13-.13Z"/>
    <path class="cls-1" d="M523.35,30.05c-1.57.89-3.04,2.26-4.41,4.12-1.77,2.45-2.08,4.22-.91,5.32,1.42.51,3.39.23,5.93-.82.3-.13.96-.44,1.98-.95,1.01-.51,1.92-.96,2.73-1.36.81-.4,1.27-.56,1.37-.48.15.17-.58.82-2.2,1.96-4.2,3.08-7.83,4.07-10.86,2.98-1.27-1.01-1.77-2.28-1.52-3.8.2-1.14.63-2.17,1.29-3.1.66-.93,1.49-1.88,2.51-2.85,1.52-1.39,2.89-2.3,4.1-2.72.56-.17,1.09-.15,1.6.06.51.21.76.55.76,1.01,0,.17-.03.34-.08.51-.3,1.31-1.42,2.89-3.34,4.75-.51.8-.99,1.35-1.44,1.65-.46.25-.9.37-1.33.35-.43-.02-.75-.18-.95-.47-.15-.25-.18-.55-.08-.89.1-.34.3-.61.61-.82.25-.13.6-.22,1.03-.28.43-.06.77-.16,1.03-.28.25-.13.61-.46,1.06-1.01.91-1.1,1.49-2.15,1.75-3.17-.36.17-.56.28-.61.32Z"/>
    <path class="cls-1" d="M531.94,30.27c.2-.1.39-.15.57-.13.18.02.34.06.49.13.15.06.28.16.38.28.1.13.15.25.15.38-.2,1.52-1.14,3.33-2.81,5.44.25-.29.62-.72,1.1-1.27.48-.55.88-1,1.22-1.36.33-.36.73-.78,1.22-1.27.48-.48.91-.89,1.29-1.2.38-.32.81-.63,1.29-.95.48-.32.92-.54,1.33-.66.4-.13.84-.19,1.29-.19s.91.11,1.37.32c-1.32.3-2.96,1.4-4.94,3.32-1.97,1.92-3.76,3.76-5.36,5.51-1.6,1.75-2.59,2.63-3,2.63-.15-.38-.23-.74-.23-1.08s.32-1.23.95-2.69c.63-1.46,1.15-2.6,1.56-3.42.41-.82.96-1.93,1.67-3.32.1-.21.25-.37.46-.47Z"/>
  </g>
  <path class="cls-2" d="M453.09,24.65v.81c-.49.35-.96.6-1.42.77s-.91.26-1.36.26c-.47,0-1.1-.14-1.87-.41-.1-.03-.17-.06-.21-.07-.02,0-.06-.02-.12-.04-.84-.31-1.5-.46-1.96-.46-.4,0-.82.09-1.26.27-.44.18-.95.47-1.52.88v-.81c.51-.35.99-.61,1.45-.78.46-.17.9-.26,1.33-.26.5,0,1.15.15,1.96.44.05.02.1.04.13.05.04.01.12.04.22.08.8.29,1.42.43,1.85.43.41,0,.83-.09,1.27-.27.44-.18.94-.47,1.51-.88Z"/>
  <path class="cls-4" d="M407.98,48.21c-.67.47-1.36.79-2.09.96-.11,0-.22.01-.33.04-.11.03-.22.04-.33.04-.06.33-.08.53-.08.58-.11,0-.25-.24-.42-.71-.17-.47-.32-.95-.46-1.42-.14-.47-.15-.74-.04-.79.11.22.21.4.29.54.08.14.15.24.21.29,0,.06.29-.11.88-.5.58-.39,1.14-.68,1.67-.88.53-.19.99-.04,1.38.46.22.45,0,.9-.67,1.38Z"/>
  <path class="cls-2" d="M169.56,49.11c-.67.47-1.36.79-2.08.96-.11,0-.22.01-.33.04-.11.03-.22.04-.33.04-.06.33-.08.53-.08.58-.11,0-.25-.24-.42-.71-.17-.47-.32-.95-.46-1.42-.14-.47-.15-.74-.04-.79.11.22.21.4.29.54.08.14.15.24.21.29,0,.06.29-.11.88-.5.58-.39,1.14-.68,1.67-.88.53-.19.99-.04,1.38.46.22.45,0,.9-.67,1.38Z"/>
</svg>