<?xml version="1.0" standalone="no"?>
<!DOCTYPE svg PUBLIC "-//W3C//DTD SVG 1.1//EN" "http://www.w3.org/Graphics/SVG/1.1/DTD/svg11.dtd">
<svg xmlns="http://www.w3.org/2000/svg" id="katman_1" data-name="katman 1" viewBox="0 0 2636.14 335.26" width="2636.139892578125" height="335.260009765625">
  <defs>
    <style>
      .cls-1 {
        fill: #fff;
      }
    </style>
  </defs>
  <g>
    <path class="cls-1" d="M721.56,326.15v-2.51h.75c1.09,0,1.56.47,1.57,1.22,0,.66-.35,1.29-1.57,1.29h-.75ZM725.57,330.64l-1.47-3.73c.86-.73.96-1.21.96-2-.01-1.39-1-2.24-2.61-2.24h-2.02v7.98h1.13v-3.58h1.38l1.43,3.58h1.2,0Z"/>
    <path class="cls-1" d="M722.78,320.24c-3.49,0-6.34,2.85-6.34,6.32s2.85,6.32,6.34,6.32,6.3-2.81,6.3-6.32-2.83-6.32-6.3-6.32M722.78,333.8c-4,0-7.26-3.25-7.26-7.25s3.26-7.23,7.26-7.23,7.24,3.25,7.24,7.23-3.26,7.25-7.24,7.25"/>
    <polygon class="cls-1" points="341 259.09 321.53 319.54 298.07 259.47 292.05 259.47 320.26 333.18 322.9 333.18 343.06 268.2 363.57 333.18 366.21 333.18 394.28 259.47 388.12 259.47 365 319.49 345.28 259.09 341 259.09"/>
    <polygon class="cls-1" points="418.61 259.4 418.61 332.57 454.41 332.57 454.41 327.86 424.28 327.86 424.28 259.4 418.61 259.4"/>
    <polygon class="cls-1" points="464.85 259.4 464.85 332.57 500.64 332.57 500.64 327.86 470.5 327.86 470.5 259.4 464.85 259.4"/>
    <rect class="cls-1" x="510.62" y="259.41" width="5.67" height="73.16"/>
    <rect class="cls-1" x="402.49" y="259.41" width="5.7" height="73.16"/>
    <path class="cls-1" d="M555.9,268.22l14.12,34.39h-28.13l14-34.39h.01ZM554.58,259.02l-30.26,73.55h5.27l10.37-25.28h31.99l10.34,25.28h5.3l-30.24-73.55h-2.77Z"/>
    <polygon class="cls-1" points="656.8 259.55 628.96 293.51 601.13 259.55 595.44 259.55 595.44 332.57 601.13 332.57 601.13 267.82 601.34 267.82 628.96 301.94 656.56 267.82 656.8 267.82 656.8 332.57 662.47 332.57 662.47 259.55 656.8 259.55"/>
    <path class="cls-1" d="M709.42,271.4c-4.62-5.97-11.2-7.39-16.23-7.39-8.77,0-15.4,6-15.4,13.95,0,19.47,34.78,10.17,34.78,35.75,0,11.24-9.3,20.01-21.2,20.01-5.99,0-12.41-1.64-18.74-6.43v-6.63c7.12,6.75,12.75,7.82,18.42,7.82,8.68,0,15.39-6.32,15.39-14.56,0-20.77-34.76-11.68-34.76-35.75,0-10.8,9.39-19.36,20.99-19.39,5.89,0,13.4,2.41,16.76,6.42v6.2h-.01Z"/>
    <polygon class="cls-1" points="109.15 259.63 109.15 332.78 146.75 332.78 146.75 323.32 119.66 323.32 119.66 259.63 109.15 259.63"/>
    <polygon class="cls-1" points="153.48 259.63 153.48 332.78 191.09 332.78 191.09 323.32 164 323.32 164 259.63 153.48 259.63"/>
    <polygon class="cls-1" points="197.86 259.63 197.86 332.78 240.34 332.78 240.34 323.32 208.38 323.32 208.38 300.61 238.32 300.61 238.32 291.15 208.38 291.15 208.38 269.06 239.38 269.06 239.38 259.63 197.86 259.63"/>
    <path class="cls-1" d="M257.7,291.6v-22.96h6.75c10.19,0,14.27,4.19,14.38,11.04.11,6.13-3.12,11.92-14.38,11.92h-6.75ZM294.32,332.76l-13.54-34.17c8.05-6.66,8.96-11.17,8.87-18.49-.11-12.65-9.2-20.47-24.02-20.47h-18.45v73.16h10.51v-32.71s8.68,0,12.52-.02l13.22,32.71h10.89Z"/>
    <polygon class="cls-1" points="59.89 259.63 59.89 332.66 102.28 332.66 102.28 323.22 70.38 323.22 70.38 300.53 100.25 300.53 100.25 291.11 70.38 291.11 70.38 269.06 101.32 269.06 101.32 259.63 59.89 259.63"/>
    <polygon class="cls-1" points="41.18 259.63 37.46 263.65 10.53 292.96 10.53 259.63 .04 259.63 .04 332.51 10.53 332.51 10.53 307.49 22.2 294.7 37.48 332.53 48.32 332.53 48.32 332.52 44.5 323.11 29.68 286.49 45.62 269.03 54.21 259.63 41.18 259.63"/>
  </g>
  <polygon class="cls-1" points="0 1.46 0 222.73 30.87 222.73 30.87 170.83 53.51 148.33 85 222.73 116.28 222.73 74.7 124.01 103.89 91.67 160.5 222.73 172.39 222.73 214.87 121.36 258.03 222.73 269.74 222.73 334.44 73.5 302.76 73.5 263.82 164.04 226.05 73.5 204.2 73.5 166.11 164.04 126.95 73.5 85.89 73.5 30.87 128.41 30.87 1.46 0 1.46"/>
  <g>
    <path class="cls-1" d="M427.52,72.18l35.89,150.63h-28.48l-6.27-31.86h-36.07l-6.27,31.86h-28.48l35.89-150.63h33.79ZM423.91,166.06l-13.1-67.72h-.38l-13.1,67.72h26.58,0Z"/>
    <path class="cls-1" d="M472.9,72.18h27.34v125.73h48.42v24.89h-75.76V72.17h0Z"/>
    <path class="cls-1" d="M636.56,97.07h-48.42v35.44h45.57v24.89h-45.57v40.51h50.31v24.89h-77.65V72.17h75.76v24.89h0Z"/>
    <path class="cls-1" d="M674.15,180.19c0,3.52.25,6.72.76,9.6s1.45,5.31,2.85,7.28c1.39,1.97,3.26,3.52,5.6,4.64,2.34,1.13,5.28,1.69,8.83,1.69,4.18,0,7.94-1.51,11.3-4.53,3.35-3.02,5.03-7.7,5.03-14.03,0-3.38-.41-6.29-1.23-8.76-.83-2.46-2.19-4.67-4.08-6.65-1.9-1.97-4.4-3.76-7.5-5.38s-6.93-3.27-11.49-4.96c-6.08-2.25-11.33-4.71-15.76-7.38s-8.14-5.8-11.11-9.39c-2.98-3.59-5.16-7.73-6.55-12.45-1.39-4.71-2.09-10.16-2.09-16.35,0-14.91,3.73-26.02,11.2-33.33,7.47-7.31,17.72-10.97,30.76-10.97,6.08,0,11.68.74,16.8,2.22s9.55,3.87,13.29,7.17c3.73,3.31,6.65,7.52,8.73,12.66,2.09,5.14,3.13,11.29,3.13,18.46v4.22h-26.2c0-7.17-1.14-12.69-3.42-16.56-2.28-3.87-6.08-5.8-11.39-5.8-3.04,0-5.57.49-7.59,1.48-2.03.99-3.64,2.29-4.84,3.9-1.21,1.62-2.03,3.48-2.47,5.59-.45,2.11-.67,4.29-.67,6.54,0,4.64.88,8.54,2.66,11.71,1.77,3.16,5.57,6.09,11.39,8.76l21.07,10.13c5.19,2.53,9.43,5.17,12.72,7.91s5.92,5.69,7.88,8.86,3.32,6.65,4.08,10.44,1.14,8.02,1.14,12.66c0,15.9-4.15,27.46-12.44,34.71s-19.84,10.86-34.65,10.86-26.49-3.73-33.13-11.18c-6.65-7.45-9.97-18.14-9.97-32.07v-6.12h27.34v4.43h.02Z"/>
    <path class="cls-1" d="M830.03,97.07h-29.62v125.73h-27.34v-125.73h-29.62v-24.89h86.58v24.89Z"/>
    <path class="cls-1" d="M891.55,72.18l35.89,150.63h-28.48l-6.27-31.86h-36.07l-6.27,31.86h-28.48l35.89-150.63h33.79,0ZM887.94,166.06l-13.1-67.72h-.38l-13.1,67.72h26.58Z"/>
  </g>
  <g>
    <path class="cls-1" d="M1745.33,326.48v-2.52h.76c1.1,0,1.56.47,1.57,1.22,0,.66-.35,1.3-1.57,1.3h-.76ZM1749.35,330.97l-1.48-3.74c.86-.73.96-1.21.96-2.01-.01-1.39-1-2.24-2.62-2.24h-2.03v7.99h1.13v-3.59h1.39l1.44,3.58h1.21Z"/>
    <path class="cls-1" d="M1746.54,320.55c-3.5,0-6.35,2.85-6.35,6.33s2.85,6.33,6.35,6.33,6.32-2.82,6.32-6.33-2.84-6.33-6.32-6.33M1746.54,334.14c-4.01,0-7.27-3.26-7.27-7.26s3.26-7.25,7.27-7.25,7.26,3.25,7.26,7.25-3.27,7.26-7.26,7.26"/>
    <polygon class="cls-1" points="1363.99 259.28 1344.48 319.85 1320.97 259.65 1314.94 259.65 1343.2 333.51 1345.85 333.51 1366.06 268.4 1386.6 333.51 1389.25 333.51 1417.38 259.65 1411.21 259.65 1388.04 319.8 1368.27 259.28 1363.99 259.28"/>
    <polygon class="cls-1" points="1441.76 259.59 1441.76 332.91 1477.63 332.91 1477.63 328.18 1447.44 328.18 1447.44 259.59 1441.76 259.59"/>
    <polygon class="cls-1" points="1488.09 259.59 1488.09 332.91 1523.96 332.91 1523.96 328.18 1493.75 328.18 1493.75 259.59 1488.09 259.59"/>
    <rect class="cls-1" x="1533.96" y="259.6" width="5.68" height="73.31"/>
    <rect class="cls-1" x="1425.6" y="259.6" width="5.72" height="73.31"/>
    <path class="cls-1" d="M1579.32,268.43l14.15,34.46h-28.18l14.03-34.46ZM1578,259.21l-30.32,73.7h5.28l10.39-25.33h32.05l10.36,25.33h5.31l-30.31-73.7h-2.77,0Z"/>
    <polygon class="cls-1" points="1680.43 259.73 1652.54 293.77 1624.65 259.73 1618.95 259.73 1618.95 332.91 1624.65 332.91 1624.65 268.02 1624.86 268.02 1652.54 302.21 1680.2 268.02 1680.43 268.02 1680.43 332.91 1686.12 332.91 1686.12 259.73 1680.43 259.73"/>
    <path class="cls-1" d="M1733.16,271.61c-4.63-5.99-11.22-7.41-16.27-7.41-8.79,0-15.44,6.02-15.44,13.98,0,19.51,34.85,10.19,34.85,35.82,0,11.26-9.32,20.05-21.25,20.05-6,0-12.43-1.64-18.77-6.44v-6.64c7.14,6.77,12.77,7.84,18.46,7.84,8.7,0,15.43-6.34,15.43-14.59,0-20.81-34.83-11.71-34.83-35.83,0-10.82,9.41-19.4,21.03-19.43,5.9,0,13.43,2.41,16.79,6.43v6.21h0Z"/>
    <polygon class="cls-1" points="1131.66 259.82 1131.66 333.12 1169.34 333.12 1169.34 323.64 1142.19 323.64 1142.19 259.82 1131.66 259.82"/>
    <polygon class="cls-1" points="1176.09 259.82 1176.09 333.12 1213.77 333.12 1213.77 323.64 1186.62 323.64 1186.62 259.82 1176.09 259.82"/>
    <polygon class="cls-1" points="1220.56 259.82 1220.56 333.12 1263.13 333.12 1263.13 323.64 1231.09 323.64 1231.09 300.88 1261.1 300.88 1261.1 291.41 1231.09 291.41 1231.09 269.27 1262.16 269.27 1262.16 259.82 1220.56 259.82"/>
    <path class="cls-1" d="M1280.52,291.85v-23h6.77c10.21,0,14.3,4.2,14.41,11.06.11,6.14-3.12,11.94-14.41,11.94h-6.77ZM1317.21,333.1l-13.57-34.24c8.07-6.67,8.98-11.19,8.89-18.53-.11-12.68-9.22-20.51-24.06-20.51h-18.48v73.31h10.54v-32.78s8.7,0,12.55-.02l13.25,32.77h10.89-.01Z"/>
    <polygon class="cls-1" points="1082.3 259.82 1082.3 332.99 1124.78 332.99 1124.78 323.54 1092.82 323.54 1092.82 300.8 1122.75 300.8 1122.75 291.36 1092.82 291.36 1092.82 269.26 1123.82 269.26 1123.82 259.82 1082.3 259.82"/>
    <polygon class="cls-1" points="1063.55 259.82 1059.83 263.84 1032.84 293.21 1032.84 259.82 1022.33 259.82 1022.33 332.85 1032.84 332.85 1032.84 307.78 1044.53 294.96 1059.85 332.86 1070.71 332.86 1070.71 332.85 1066.88 323.43 1052.03 286.73 1068.01 269.24 1076.61 259.82 1063.55 259.82"/>
  </g>
  <polygon class="cls-1" points="1022.29 1.12 1022.29 222.84 1053.23 222.84 1053.23 170.84 1075.91 148.29 1107.46 222.84 1138.81 222.84 1097.14 123.92 1126.39 91.51 1183.12 222.84 1195.03 222.84 1237.6 121.27 1280.85 222.84 1292.58 222.84 1357.41 73.31 1325.67 73.31 1286.65 164.04 1248.8 73.31 1226.91 73.31 1188.74 164.04 1149.5 73.31 1108.36 73.31 1053.23 128.33 1053.23 1.12 1022.29 1.12"/>
  <g>
    <path class="cls-1" d="M1429.95,183.39h.57l20.17-111.61h28.35l-31.2,150.93h-35.2l-31.2-150.93h29.3l19.22,111.61h-.01Z"/>
    <path class="cls-1" d="M1490.46,71.77h27.4v150.93h-27.4V71.77Z"/>
    <path class="cls-1" d="M1577.97,130.12h.38l19.03-58.35h29.68l-35.2,91.53v59.4h-27.4v-59.4l-35.2-91.53h30.82l17.88,58.35h0Z"/>
    <path class="cls-1" d="M1686.99,71.77l35.96,150.93h-28.54l-6.28-31.92h-36.15l-6.28,31.92h-28.54l35.96-150.93h33.87ZM1683.37,165.84l-13.13-67.86h-.38l-13.13,67.86h26.64Z"/>
  </g>
  <g>
    <path class="cls-1" d="M2584.18,327.55v-2.53h.76c1.1,0,1.57.48,1.58,1.23,0,.66-.36,1.31-1.58,1.31h-.76ZM2588.23,332.07l-1.49-3.76c.87-.74.97-1.22.97-2.02-.01-1.4-1.01-2.26-2.63-2.26h-2.04v8.05h1.14v-3.61h1.39l1.45,3.61h1.21Z"/>
    <path class="cls-1" d="M2585.41,321.58c-3.52,0-6.4,2.87-6.4,6.37s2.87,6.37,6.4,6.37,6.36-2.84,6.36-6.37-2.86-6.37-6.36-6.37M2585.41,335.26c-4.04,0-7.32-3.28-7.32-7.31s3.28-7.3,7.32-7.3,7.31,3.27,7.31,7.3-3.29,7.31-7.31,7.31"/>
    <polygon class="cls-1" points="2200.28 259.9 2180.63 320.87 2156.97 260.27 2150.89 260.27 2179.35 334.63 2182.01 334.63 2202.35 269.08 2223.04 334.63 2225.71 334.63 2254.02 260.27 2247.81 260.27 2224.48 320.83 2204.58 259.9 2200.28 259.9"/>
    <polygon class="cls-1" points="2278.57 260.21 2278.57 334.03 2314.68 334.03 2314.68 329.27 2284.29 329.27 2284.29 260.21 2278.57 260.21"/>
    <polygon class="cls-1" points="2325.21 260.21 2325.21 334.03 2361.32 334.03 2361.32 329.27 2330.91 329.27 2330.91 260.21 2325.21 260.21"/>
    <rect class="cls-1" x="2371.39" y="260.22" width="5.72" height="73.81"/>
    <rect class="cls-1" x="2262.3" y="260.22" width="5.75" height="73.81"/>
    <path class="cls-1" d="M2417.06,269.11l14.25,34.69h-28.37l14.13-34.69h0ZM2415.73,259.82l-30.52,74.2h5.32l10.46-25.5h32.27l10.43,25.5h5.35l-30.51-74.2h-2.8Z"/>
    <polygon class="cls-1" points="2518.85 260.36 2490.77 294.62 2462.69 260.36 2456.95 260.36 2456.95 334.03 2462.69 334.03 2462.69 268.7 2462.9 268.7 2490.77 303.12 2518.61 268.7 2518.85 268.7 2518.85 334.03 2524.57 334.03 2524.57 260.36 2518.85 260.36"/>
    <path class="cls-1" d="M2571.94,272.31c-4.66-6.03-11.3-7.45-16.38-7.45-8.85,0-15.54,6.06-15.54,14.07,0,19.64,35.09,10.26,35.09,36.07,0,11.33-9.38,20.19-21.39,20.19-6.04,0-12.52-1.65-18.9-6.49v-6.69c7.18,6.81,12.86,7.89,18.58,7.89,8.76,0,15.53-6.38,15.53-14.69,0-20.95-35.07-11.78-35.07-36.07,0-10.89,9.48-19.53,21.17-19.56,5.94,0,13.52,2.43,16.91,6.48v6.26h0Z"/>
    <polygon class="cls-1" points="1966.38 260.44 1966.38 334.23 2004.31 334.23 2004.31 324.69 1976.98 324.69 1976.98 260.44 1966.38 260.44"/>
    <polygon class="cls-1" points="2011.1 260.44 2011.1 334.23 2049.04 334.23 2049.04 324.69 2021.71 324.69 2021.71 260.44 2011.1 260.44"/>
    <polygon class="cls-1" points="2055.88 260.44 2055.88 334.23 2098.73 334.23 2098.73 324.69 2066.48 324.69 2066.48 301.78 2096.69 301.78 2096.69 292.24 2066.48 292.24 2066.48 269.96 2097.75 269.96 2097.75 260.44 2055.88 260.44"/>
    <path class="cls-1" d="M2116.24,292.69v-23.16h6.81c10.28,0,14.39,4.23,14.5,11.14.11,6.19-3.14,12.02-14.5,12.02h-6.81ZM2153.18,334.21l-13.66-34.47c8.12-6.71,9.04-11.27,8.95-18.66-.11-12.77-9.29-20.65-24.23-20.65h-18.61v73.8h10.61v-33s8.76,0,12.63-.02l13.34,32.99h10.97Z"/>
    <polygon class="cls-1" points="1916.68 260.44 1916.68 334.11 1959.46 334.11 1959.46 324.59 1927.28 324.59 1927.28 301.7 1957.4 301.7 1957.4 292.19 1927.28 292.19 1927.28 269.95 1958.49 269.95 1958.49 260.44 1916.68 260.44"/>
    <polygon class="cls-1" points="1897.81 260.44 1894.06 264.49 1866.89 294.06 1866.89 260.44 1856.31 260.44 1856.31 333.96 1866.89 333.96 1866.89 308.72 1878.67 295.82 1894.09 333.98 1905.01 333.98 1905.01 333.97 1901.16 324.48 1886.21 287.53 1902.3 269.92 1910.96 260.44 1897.81 260.44"/>
  </g>
  <polygon class="cls-1" points="1856.27 0 1856.27 223.22 1887.42 223.22 1887.42 170.86 1910.25 148.16 1942.02 223.22 1973.57 223.22 1931.63 123.63 1961.07 91 2018.19 223.22 2030.18 223.22 2073.03 120.96 2116.57 223.22 2128.39 223.22 2193.65 72.67 2161.69 72.67 2122.41 164.01 2084.31 72.67 2062.27 72.67 2023.84 164.01 1984.34 72.67 1942.92 72.67 1887.42 128.07 1887.42 0 1856.27 0"/>
  <g>
    <path class="cls-1" d="M2225.4,115.5c.96-9.72,3.07-18.05,6.32-25.01,3.26-6.95,7.95-12.38,14.08-16.28,6.13-3.9,14.36-5.85,24.71-5.85s18.58,1.95,24.71,5.85,10.82,9.33,14.08,16.28c3.25,6.95,5.36,15.29,6.32,25.01s1.44,20.33,1.44,31.82-.48,22.28-1.44,31.92c-.96,9.65-3.06,17.95-6.32,24.9s-7.95,12.27-14.08,15.96c-6.13,3.69-14.37,5.53-24.71,5.53s-18.58-1.84-24.71-5.53-10.82-9.01-14.08-15.96c-3.25-6.95-5.36-15.25-6.32-24.9s-1.44-20.29-1.44-31.92.48-22.1,1.44-31.82ZM2252.21,173.39c.45,7.17,1.34,12.98,2.68,17.45,1.34,4.47,3.26,7.73,5.75,9.79s5.77,3.08,9.87,3.08,7.37-1.03,9.86-3.08c2.49-2.06,4.41-5.32,5.75-9.79s2.23-10.28,2.68-17.45c.45-7.16.67-15.85.67-26.07s-.23-18.87-.67-25.96c-.45-7.09-1.34-12.91-2.68-17.45-1.34-4.54-3.25-7.84-5.75-9.9-2.49-2.05-5.78-3.09-9.86-3.09s-7.38,1.03-9.87,3.09c-2.49,2.06-4.41,5.36-5.75,9.9s-2.24,10.36-2.68,17.45c-.45,7.1-.67,15.75-.67,25.96s.22,18.91.67,26.07Z"/>
    <path class="cls-1" d="M2384.28,71.34c11.49,0,20.43,3.23,26.81,9.68,6.39,6.46,9.58,16.28,9.58,29.47,0,10.21-1.85,18.55-5.55,25.01-3.7,6.46-9.45,10.61-17.24,12.45v.43c6.9,1.14,11.94,3.62,15.13,7.45,3.19,3.83,5.17,10,5.94,18.51.25,2.84.45,5.92.57,9.26.12,3.33.25,7.06.38,11.17.25,8.09.64,14.26,1.15,18.51.77,4.26,2.43,7.17,4.98,8.72v1.28h-29.88c-1.41-2.13-2.3-4.58-2.68-7.34s-.64-5.64-.77-8.62l-.77-29.16c-.26-5.96-1.6-10.64-4.03-14.05s-6.51-5.11-12.26-5.11h-14.75v64.27h-27.58V71.32h50.95l.02.02ZM2372.4,137.74c6.64,0,11.75-1.74,15.32-5.21,3.58-3.47,5.37-9.33,5.37-17.56,0-14.04-6.39-21.07-19.16-21.07h-13.02v43.84h11.49,0Z"/>
    <path class="cls-1" d="M2462.04,180.3c0,3.55.25,6.78.77,9.68.51,2.91,1.47,5.36,2.88,7.34,1.4,1.99,3.29,3.55,5.65,4.68,2.36,1.14,5.33,1.7,8.91,1.7,4.21,0,8.01-1.52,11.39-4.57s5.08-7.77,5.08-14.15c0-3.4-.41-6.35-1.24-8.83-.83-2.48-2.2-4.71-4.12-6.7-1.91-1.98-4.44-3.79-7.57-5.43-3.13-1.63-7-3.3-11.59-5-6.13-2.27-11.43-4.75-15.9-7.45s-8.21-5.85-11.21-9.47-5.2-7.8-6.61-12.56c-1.4-4.75-2.11-10.25-2.11-16.49,0-15.04,3.77-26.25,11.3-33.62,7.53-7.38,17.88-11.07,31.03-11.07,6.13,0,11.78.75,16.95,2.24s9.63,3.9,13.41,7.24c3.76,3.33,6.7,7.59,8.81,12.77s3.16,11.39,3.16,18.62v4.26h-26.43c0-7.24-1.15-12.8-3.45-16.71-2.3-3.9-6.13-5.85-11.49-5.85-3.07,0-5.62.5-7.66,1.49-2.04,1-3.67,2.31-4.88,3.94-1.22,1.63-2.04,3.51-2.49,5.64s-.67,4.33-.67,6.6c0,4.68.9,8.62,2.69,11.81s5.61,6.14,11.49,8.83l21.26,10.21c5.24,2.55,9.51,5.21,12.83,7.98,3.32,2.77,5.97,5.74,7.95,8.94,1.98,3.19,3.35,6.7,4.12,10.54.77,3.83,1.15,8.09,1.15,12.77,0,16.04-4.18,27.7-12.54,35.01-8.37,7.31-20.01,10.96-34.95,10.96s-26.72-3.76-33.43-11.28c-6.7-7.52-10.05-18.3-10.05-32.35v-6.17h27.58v4.47l-.02-.02Z"/>
    <path class="cls-1" d="M2599.94,71.34l36.2,151.95h-28.73l-6.32-32.14h-36.39l-6.32,32.14h-28.73l36.2-151.95h34.09ZM2596.31,166.04l-13.22-68.31h-.38l-13.22,68.31h26.82Z"/>
  </g>
</svg>